<?xml version="1.0" encoding="UTF-8" standalone="no"?>
<svg
   xmlns:dc="http://purl.org/dc/elements/1.1/"
   xmlns:cc="http://creativecommons.org/ns#"
   xmlns:rdf="http://www.w3.org/1999/02/22-rdf-syntax-ns#"
   xmlns:svg="http://www.w3.org/2000/svg"
   xmlns="http://www.w3.org/2000/svg"
   xmlns:sodipodi="http://sodipodi.sourceforge.net/DTD/sodipodi-0.dtd"
   xmlns:inkscape="http://www.inkscape.org/namespaces/inkscape"
   width="48"
   height="48"
   viewBox="0 0 12.7 12.7"
   version="1.1"
   id="svg4"
   sodipodi:docname="accessories-text-editor.svg"
   inkscape:version="0.92.4 (5da689c313, 2019-01-14)">
  <metadata
     id="metadata10">
    <rdf:RDF>
      <cc:Work
         rdf:about="">
        <dc:format>image/svg+xml</dc:format>
        <dc:type
           rdf:resource="http://purl.org/dc/dcmitype/StillImage" />
        <dc:title></dc:title>
      </cc:Work>
    </rdf:RDF>
  </metadata>
  <defs
     id="defs8" />
  <sodipodi:namedview
     pagecolor="#ffffff"
     bordercolor="#666666"
     borderopacity="1"
     objecttolerance="10"
     gridtolerance="10"
     guidetolerance="10"
     inkscape:pageopacity="0"
     inkscape:pageshadow="2"
     inkscape:window-width="1085"
     inkscape:window-height="480"
     id="namedview6"
     showgrid="false"
     inkscape:zoom="4.9166667"
     inkscape:cx="2.1355932"
     inkscape:cy="24"
     inkscape:window-x="0"
     inkscape:window-y="25"
     inkscape:window-maximized="0"
     inkscape:current-layer="svg4" />
  <path
     d="M 6.3440003,0.077 A 6.267,6.267 0 0 0 0.07600003,6.344 6.267,6.267 0 0 0 6.3440003,12.611 6.267,6.267 0 0 0 12.611,6.344 6.267,6.267 0 0 0 6.3440003,0.077 Z m -0.018,0.932 A 5.388,5.388 0 0 1 11.714,6.399 5.388,5.388 0 0 1 6.3260003,11.786 5.388,5.388 0 0 1 0.93700003,6.398 5.388,5.388 0 0 1 6.3270003,1.009 Z m 2.92,1.421 a 0.377,0.377 0 0 0 -0.268,0.11 l -0.572,0.571 1.25,1.248 L 10.228,3.789 a 0.377,0.377 0 0 0 0,-0.534 L 9.5140003,2.541 a 0.377,0.377 0 0 0 -0.268,-0.11 z m -1.107,0.948 L 4.695,6.816 l 1.2500003,1.247 3.444,-3.436 z M 2.879,3.74 a 0.53,0.53 0 0 0 -0.53,0.529 v 5.29 c 0,0.292 0.238,0.53 0.53,0.53 h 5.2910003 c 0.29,0 0.53,-0.238 0.53,-0.53 V 5.778 l -0.82,0.816 V 9.272 H 3.169 V 4.557 h 3.3260003 l 0.82,-0.817 z M 4.426,7.082 4.158,8.596 5.6750003,8.331 Z"
     id="path2"
     inkscape:connector-curvature="0"
     style="fill:#1a1a1a" />
</svg>
