<?xml version="1.0" encoding="UTF-8" standalone="no"?>
<svg
   xmlns:dc="http://purl.org/dc/elements/1.1/"
   xmlns:cc="http://creativecommons.org/ns#"
   xmlns:rdf="http://www.w3.org/1999/02/22-rdf-syntax-ns#"
   xmlns:svg="http://www.w3.org/2000/svg"
   xmlns="http://www.w3.org/2000/svg"
   xmlns:sodipodi="http://sodipodi.sourceforge.net/DTD/sodipodi-0.dtd"
   xmlns:inkscape="http://www.inkscape.org/namespaces/inkscape"
   width="48"
   height="48"
   viewBox="0 0 12.7 12.7"
   version="1.1"
   id="svg4"
   sodipodi:docname="accessories-calculator.svg"
   inkscape:version="0.92.4 (5da689c313, 2019-01-14)">
  <metadata
     id="metadata10">
    <rdf:RDF>
      <cc:Work
         rdf:about="">
        <dc:format>image/svg+xml</dc:format>
        <dc:type
           rdf:resource="http://purl.org/dc/dcmitype/StillImage" />
        <dc:title></dc:title>
      </cc:Work>
    </rdf:RDF>
  </metadata>
  <defs
     id="defs8" />
  <sodipodi:namedview
     pagecolor="#ffffff"
     bordercolor="#666666"
     borderopacity="1"
     objecttolerance="10"
     gridtolerance="10"
     guidetolerance="10"
     inkscape:pageopacity="0"
     inkscape:pageshadow="2"
     inkscape:window-width="1085"
     inkscape:window-height="480"
     id="namedview6"
     showgrid="false"
     inkscape:zoom="4.9166667"
     inkscape:cx="2.1355932"
     inkscape:cy="24"
     inkscape:window-x="0"
     inkscape:window-y="25"
     inkscape:window-maximized="0"
     inkscape:current-layer="svg4" />
  <path
     d="M 6.3440003,0.073 A 6.29,6.29 0 0 0 0.05400003,6.363 6.29,6.29 0 0 0 6.3440003,12.651 6.29,6.29 0 0 0 12.634,6.362 6.29,6.29 0 0 0 6.3440003,0.072 Z m -0.018,0.936 A 5.407,5.407 0 0 1 11.733,6.416 5.407,5.407 0 0 1 6.3260003,11.823 5.407,5.407 0 0 1 0.92000003,6.416 5.407,5.407 0 0 1 6.3260003,1.01 Z M 3.64,2.516 A 0.375,0.375 0 0 0 3.264,2.892 v 6.916 c 0,0.209 0.168,0.376 0.376,0.376 h 5.4200003 a 0.375,0.375 0 0 0 0.376,-0.376 V 2.892 a 0.375,0.375 0 0 0 -0.376,-0.376 z m 0.334,0.652 h 4.7520003 c 0.126,0 0.226,0.098 0.226,0.22 v 1.244 c 0,0.122 -0.1,0.22 -0.226,0.22 H 3.974 A 0.222,0.222 0 0 1 3.748,4.632 V 3.387 c 0,-0.121 0.1,-0.22 0.226,-0.22 z m 3.9830003,2.338 h 0.725 c 0.108,0 0.194,0.088 0.194,0.196 v 0.357 a 0.195,0.195 0 0 1 -0.194,0.195 h -0.725 a 0.195,0.195 0 0 1 -0.194,-0.195 V 5.702 c 0,-0.109 0.087,-0.196 0.194,-0.196 z M 4.02,5.506 h 0.544 c 0.108,0 0.1950003,0.088 0.1950003,0.196 V 6.059 A 0.195,0.195 0 0 1 4.564,6.255 H 4.02 A 0.196,0.196 0 0 1 3.824,6.059 V 5.702 c 0,-0.108 0.088,-0.195 0.196,-0.195 z m 2.6200003,0 h 0.543 c 0.109,0 0.196,0.088 0.196,0.196 v 0.357 a 0.195,0.195 0 0 1 -0.196,0.196 h -0.544 a 0.195,0.195 0 0 1 -0.195,-0.196 V 5.702 c 0,-0.108 0.087,-0.195 0.195,-0.195 z m -1.31,10e-4 h 0.544 c 0.108,0 0.195,0.088 0.195,0.196 V 6.06 a 0.195,0.195 0 0 1 -0.195,0.195 h -0.544 a 0.195,0.195 0 0 1 -0.196,-0.195 V 5.703 c 0,-0.109 0.087,-0.196 0.196,-0.196 z M 4.02,6.63 h 0.544 c 0.108,0 0.1950003,0.087 0.1950003,0.196 V 7.183 A 0.195,0.195 0 0 1 4.564,7.379 H 4.02 A 0.196,0.196 0 0 1 3.824,7.183 V 6.826 C 3.824,6.717 3.912,6.63 4.02,6.63 Z m 2.6200003,0 h 0.543 c 0.109,0 0.196,0.087 0.196,0.196 v 0.357 a 0.195,0.195 0 0 1 -0.196,0.196 h -0.544 a 0.195,0.195 0 0 1 -0.195,-0.196 V 6.826 c 0,-0.109 0.087,-0.196 0.195,-0.196 z m 1.317,0 h 0.725 c 0.108,0 0.194,0.087 0.194,0.196 v 0.357 a 0.195,0.195 0 0 1 -0.194,0.196 h -0.725 a 0.195,0.195 0 0 1 -0.194,-0.196 V 6.826 c 0,-0.109 0.087,-0.196 0.194,-0.196 z m -2.627,0 h 0.544 c 0.108,0 0.195,0.088 0.195,0.196 v 0.357 a 0.195,0.195 0 0 1 -0.195,0.196 h -0.544 a 0.195,0.195 0 0 1 -0.196,-0.196 V 6.826 c 0,-0.108 0.087,-0.195 0.196,-0.195 z M 4.02,7.753 h 0.544 c 0.108,0 0.1950003,0.087 0.1950003,0.196 V 8.305 A 0.195,0.195 0 0 1 4.564,8.501 H 4.02 A 0.196,0.196 0 0 1 3.824,8.305 V 7.949 C 3.824,7.84 3.912,7.753 4.02,7.753 Z m 2.6200003,0 h 0.543 c 0.109,0 0.196,0.087 0.196,0.196 v 0.356 a 0.195,0.195 0 0 1 -0.196,0.196 h -0.544 a 0.195,0.195 0 0 1 -0.195,-0.196 V 7.949 c 0,-0.109 0.087,-0.196 0.195,-0.196 z m 1.317,0 h 0.725 c 0.108,0 0.194,0.088 0.194,0.196 v 1.48 a 0.195,0.195 0 0 1 -0.194,0.195 h -0.725 a 0.195,0.195 0 0 1 -0.194,-0.196 v -1.48 c 0,-0.108 0.087,-0.196 0.194,-0.196 z m -2.627,0 h 0.544 c 0.108,0 0.195,0.088 0.195,0.196 v 0.357 a 0.195,0.195 0 0 1 -0.195,0.196 h -0.544 a 0.195,0.195 0 0 1 -0.196,-0.196 V 7.949 c 0,-0.108 0.087,-0.196 0.196,-0.196 z m 1.31,1.122 h 0.543 c 0.109,0 0.196,0.088 0.196,0.197 v 0.356 a 0.195,0.195 0 0 1 -0.196,0.196 h -0.544 a 0.196,0.196 0 0 1 -0.195,-0.196 V 9.07 c 0,-0.108 0.087,-0.196 0.195,-0.196 z M 4.018,8.875 h 1.8840003 c 0.108,0 0.194,0.088 0.194,0.197 v 0.356 a 0.194,0.194 0 0 1 -0.194,0.196 H 4.018 A 0.195,0.195 0 0 1 3.824,9.428 V 9.072 c 0,-0.109 0.086,-0.196 0.194,-0.196 z"
     id="path2"
     inkscape:connector-curvature="0"
     style="fill:#1a1a1a" />
</svg>
