<?xml version="1.0" encoding="UTF-8" standalone="no"?>
<svg
   xmlns:dc="http://purl.org/dc/elements/1.1/"
   xmlns:cc="http://creativecommons.org/ns#"
   xmlns:rdf="http://www.w3.org/1999/02/22-rdf-syntax-ns#"
   xmlns:svg="http://www.w3.org/2000/svg"
   xmlns="http://www.w3.org/2000/svg"
   xmlns:sodipodi="http://sodipodi.sourceforge.net/DTD/sodipodi-0.dtd"
   xmlns:inkscape="http://www.inkscape.org/namespaces/inkscape"
   width="48"
   height="48"
   viewBox="0 0 12.7 12.7"
   version="1.1"
   id="svg4"
   sodipodi:docname="addressbook.svg"
   inkscape:version="0.92.4 (5da689c313, 2019-01-14)">
  <metadata
     id="metadata10">
    <rdf:RDF>
      <cc:Work
         rdf:about="">
        <dc:format>image/svg+xml</dc:format>
        <dc:type
           rdf:resource="http://purl.org/dc/dcmitype/StillImage" />
        <dc:title></dc:title>
      </cc:Work>
    </rdf:RDF>
  </metadata>
  <defs
     id="defs8" />
  <sodipodi:namedview
     pagecolor="#ffffff"
     bordercolor="#666666"
     borderopacity="1"
     objecttolerance="10"
     gridtolerance="10"
     guidetolerance="10"
     inkscape:pageopacity="0"
     inkscape:pageshadow="2"
     inkscape:window-width="1085"
     inkscape:window-height="480"
     id="namedview6"
     showgrid="false"
     inkscape:zoom="4.9166667"
     inkscape:cx="2.1355932"
     inkscape:cy="24"
     inkscape:window-x="0"
     inkscape:window-y="25"
     inkscape:window-maximized="0"
     inkscape:current-layer="svg4" />
  <path
     d="M 6.3400003,0.07 A 6.29,6.29 0 0 0 0.05000003,6.37 6.29,6.29 0 0 0 6.3500003,12.65 6.29,6.29 0 0 0 12.63,6.36 6.29,6.29 0 0 0 6.3400003,0.07 Z m -0.01,0.94 A 5.4,5.4 0 0 1 11.73,6.41 5.4,5.4 0 0 1 6.3300003,11.82 5.4,5.4 0 0 1 0.92000003,6.42 5.4,5.4 0 0 1 6.3200003,1 Z m 0.1,1.24 a 4,4 0 0 0 -1.54,0.3 A 3.96,3.96 0 0 0 2.73,4.76 4.22,4.22 0 0 0 2.43,6.35 c 0,0.57 0.1,1.11 0.3,1.61 a 3.88,3.88 0 0 0 2.1600003,2.2 4.03,4.03 0 0 0 4.08,-0.62 l -0.47,-0.74 a 2.93,2.93 0 0 1 -0.95,0.58 3.1,3.1 0 0 1 -1.12,0.21 3.2,3.2 0 0 1 -1.23,-0.23 A 3.02,3.02 0 0 1 4.18,8.68 3.19,3.19 0 0 1 3.49,7.63 3.46,3.46 0 0 1 3.26,6.35 C 3.26,5.8 3.38,5.28 3.62,4.81 a 3.09,3.09 0 0 1 1.9000003,-1.56 3.38,3.38 0 0 1 2.35,0.16 2.82,2.82 0 0 1 1.45,1.59 c 0.08,0.26 0.12,0.55 0.12,0.85 0,0.48 -0.1,0.87 -0.31,1.18 -0.21,0.3 -0.5,0.49 -0.87,0.55 V 4.4 h -0.92 V 5 a 1.05,1.05 0 0 0 -0.43,-0.5 1.27,1.27 0 0 0 -0.7,-0.2 c -0.5,0 -0.91,0.2 -1.23,0.58 C 4.66,5.26 4.5,5.75 4.5,6.36 c 0,0.61 0.16,1.1 0.4800003,1.49 0.32,0.37 0.73,0.56 1.24,0.56 0.26,0 0.5,-0.06 0.69,-0.17 0.2,-0.13 0.34,-0.3 0.43,-0.51 v 0.7 h 0.17 c 0.88,0 1.56,-0.23 2.04,-0.68 C 10.03,7.29 10.27,6.65 10.27,5.82 a 3.45,3.45 0 0 0 -0.6699997,-2.07 3.6,3.6 0 0 0 -1.36,-1.12 4.1,4.1 0 0 0 -1.8,-0.4 z m -0.06,2.92 c 0.27,0 0.48,0.1 0.64,0.32 0.16,0.21 0.24,0.5 0.24,0.87 0,0.37 -0.08,0.67 -0.24,0.89 a 0.74,0.74 0 0 1 -0.63,0.32 0.74,0.74 0 0 1 -0.63,-0.32 1.51,1.51 0 0 1 -0.23,-0.89 c 0,-0.37 0.07,-0.66 0.23,-0.87 a 0.74,0.74 0 0 1 0.62,-0.32 z"
     id="path2"
     inkscape:connector-curvature="0"
     style="fill:#1a1a1a" />
</svg>
