<?xml version="1.0" encoding="UTF-8" standalone="no"?>
<svg
   xmlns:dc="http://purl.org/dc/elements/1.1/"
   xmlns:cc="http://creativecommons.org/ns#"
   xmlns:rdf="http://www.w3.org/1999/02/22-rdf-syntax-ns#"
   xmlns:svg="http://www.w3.org/2000/svg"
   xmlns="http://www.w3.org/2000/svg"
   xmlns:sodipodi="http://sodipodi.sourceforge.net/DTD/sodipodi-0.dtd"
   xmlns:inkscape="http://www.inkscape.org/namespaces/inkscape"
   width="48"
   height="48"
   viewBox="0 0 12.7 12.7"
   version="1.1"
   id="svg12"
   sodipodi:docname="akonaditray.svg"
   inkscape:version="0.92.4 (5da689c313, 2019-01-14)">
  <defs
     id="defs16" />
  <sodipodi:namedview
     pagecolor="#ffffff"
     bordercolor="#666666"
     borderopacity="1"
     objecttolerance="10"
     gridtolerance="10"
     guidetolerance="10"
     inkscape:pageopacity="0"
     inkscape:pageshadow="2"
     inkscape:window-width="1085"
     inkscape:window-height="480"
     id="namedview14"
     showgrid="false"
     inkscape:zoom="4.9166667"
     inkscape:cx="2.1355932"
     inkscape:cy="24"
     inkscape:window-x="0"
     inkscape:window-y="25"
     inkscape:window-maximized="0"
     inkscape:current-layer="svg12" />
  <metadata
     id="metadata2">
    <rdf:RDF>
      <cc:Work>
        <dc:format>image/svg+xml</dc:format>
        <dc:type
           rdf:resource="http://purl.org/dc/dcmitype/StillImage" />
        <dc:title></dc:title>
      </cc:Work>
    </rdf:RDF>
  </metadata>
  <path
     d="M 6.3500003,0.06 A 6.29,6.29 0 0 0 0.06000003,6.36 6.29,6.29 0 0 0 6.3500003,12.64 6.29,6.29 0 0 0 12.64,6.35 6.29,6.29 0 0 0 6.3500003,0.06 Z m -0.02,0.94 A 5.4,5.4 0 0 1 11.73,6.4 5.4,5.4 0 0 1 6.3300003,11.81 5.4,5.4 0 0 1 0.93000003,6.41 5.4,5.4 0 0 1 6.3300003,1 Z"
     id="path4"
     inkscape:connector-curvature="0"
     style="fill:#1a1a1a" />
  <path
     style="marker:none"
     d="M6.35 1.74a4.61 4.61 0 0 0-.33 0 4.61 4.61 0 0 0-.45.06 4.61 4.61 0 0 0-.45.1 4.61 4.61 0 0 0-.44.15 4.61 4.61 0 0 0-.42.19 4.61 4.61 0 0 0-.4.23 4.61 4.61 0 0 0-.38.27 4.61 4.61 0 0 0-.34.3 4.61 4.61 0 0 0-.32.34 4.61 4.61 0 0 0-.28.36 4.61 4.61 0 0 0-.24.4 4.61 4.61 0 0 0-.2.41 4.61 4.61 0 0 0-.16.44 4.61 4.61 0 0 0-.11.44 4.61 4.61 0 0 0-.07.46 4.61 4.61 0 0 0-.02.46 4.61 4.61 0 0 0 0 .32 4.61 4.61 0 0 0 .06.46 4.61 4.61 0 0 0 .1.45 4.61 4.61 0 0 0 .15.44 4.61 4.61 0 0 0 .19.42 4.61 4.61 0 0 0 .23.4 4.61 4.61 0 0 0 .27.38 4.61 4.61 0 0 0 .3.34 4.61 4.61 0 0 0 .34.32 4.61 4.61 0 0 0 .36.28 4.61 4.61 0 0 0 .4.24 4.61 4.61 0 0 0 .41.2 4.61 4.61 0 0 0 .44.16 4.61 4.61 0 0 0 .44.11 4.61 4.61 0 0 0 .46.07 4.61 4.61 0 0 0 .46.02 4.61 4.61 0 0 0 .33 0 4.61 4.61 0 0 0 .45-.06 4.61 4.61 0 0 0 .45-.1 4.61 4.61 0 0 0 .44-.15 4.61 4.61 0 0 0 .42-.19 4.61 4.61 0 0 0 .4-.23 4.61 4.61 0 0 0 .38-.27 4.61 4.61 0 0 0 .34-.3 4.61 4.61 0 0 0 .32-.34 4.61 4.61 0 0 0 .28-.37 4.61 4.61 0 0 0 .24-.39 4.61 4.61 0 0 0 .2-.41 4.61 4.61 0 0 0 .16-.44 4.61 4.61 0 0 0 .11-.44 4.61 4.61 0 0 0 .07-.46 4.61 4.61 0 0 0 .02-.46 4.61 4.61 0 0 0 0-.33 4.61 4.61 0 0 0-.06-.46 4.61 4.61 0 0 0-.1-.45 4.61 4.61 0 0 0-.15-.43 4.61 4.61 0 0 0-.19-.42 4.61 4.61 0 0 0-.23-.4 4.61 4.61 0 0 0-.27-.38 4.61 4.61 0 0 0-.3-.35 4.61 4.61 0 0 0-.34-.31 4.61 4.61 0 0 0-.37-.28 4.61 4.61 0 0 0-.39-.24 4.61 4.61 0 0 0-.41-.2 4.61 4.61 0 0 0-.44-.16 4.61 4.61 0 0 0-.44-.11 4.61 4.61 0 0 0-.46-.07 4.61 4.61 0 0 0-.46-.02z"
     color="#000"
     overflow="visible"
     opacity=".5"
     fill="#acf"
     id="path6" />
  <path
     style="marker:none"
     d="M4.18 2.29a4.61 4.61 0 0 0-.32.18 4.61 4.61 0 0 0-.38.27 4.61 4.61 0 0 0-.34.3 4.61 4.61 0 0 0-.32.34 4.61 4.61 0 0 0-.28.37 4.61 4.61 0 0 0-.24.39 4.61 4.61 0 0 0-.2.41 4.61 4.61 0 0 0-.16.44 4.61 4.61 0 0 0-.11.44 4.61 4.61 0 0 0-.07.46 4.61 4.61 0 0 0-.02.46 4.61 4.61 0 0 0 0 .33 4.61 4.61 0 0 0 .06.45 4.61 4.61 0 0 0 .1.45 4.61 4.61 0 0 0 .15.44 4.61 4.61 0 0 0 .19.42 4.61 4.61 0 0 0 .23.4 4.61 4.61 0 0 0 .27.38 4.61 4.61 0 0 0 .3.34 4.61 4.61 0 0 0 .34.32 4.61 4.61 0 0 0 .36.28 4.61 4.61 0 0 0 .4.24 4.61 4.61 0 0 0 .41.2 4.61 4.61 0 0 0 .44.16 4.61 4.61 0 0 0 .44.11 4.61 4.61 0 0 0 .46.07 4.61 4.61 0 0 0 .46.02 4.61 4.61 0 0 0 .33 0 4.61 4.61 0 0 0 .45-.06 4.61 4.61 0 0 0 .45-.1 4.61 4.61 0 0 0 .44-.15 4.61 4.61 0 0 0 .42-.19 4.61 4.61 0 0 0 .4-.23 4.61 4.61 0 0 0 .38-.27 4.61 4.61 0 0 0 .34-.3 4.61 4.61 0 0 0 .32-.34 4.61 4.61 0 0 0 .28-.37 4.61 4.61 0 0 0 .24-.39 4.61 4.61 0 0 0 .2-.41 4.61 4.61 0 0 0 .15-.43A6.85 6.85 0 0 1 4.18 2.3z"
     color="#000"
     overflow="visible"
     opacity=".5"
     fill="#59f"
     id="path8" />
  <path
     style="marker:none"
     d="M1.78 5.76a4.61 4.61 0 0 0-.02.13 4.61 4.61 0 0 0-.02.46 4.61 4.61 0 0 0 0 .33 4.61 4.61 0 0 0 .06.45 4.61 4.61 0 0 0 .1.45 4.61 4.61 0 0 0 .15.44 4.61 4.61 0 0 0 .19.42 4.61 4.61 0 0 0 .23.4 4.61 4.61 0 0 0 .27.38 4.61 4.61 0 0 0 .3.34 4.61 4.61 0 0 0 .34.32 4.61 4.61 0 0 0 .36.28 4.61 4.61 0 0 0 .4.24 4.61 4.61 0 0 0 .41.2 4.61 4.61 0 0 0 .44.16 4.61 4.61 0 0 0 .44.11 4.61 4.61 0 0 0 .46.07 4.61 4.61 0 0 0 .46.02 4.61 4.61 0 0 0 .33 0 4.61 4.61 0 0 0 .45-.06 4.61 4.61 0 0 0 .45-.1 4.61 4.61 0 0 0 .44-.15 4.61 4.61 0 0 0 .42-.19 4.61 4.61 0 0 0 .4-.23 4.61 4.61 0 0 0 .38-.27 4.61 4.61 0 0 0 .34-.3 4.61 4.61 0 0 0 .32-.34 4.61 4.61 0 0 0 .28-.36 4.61 4.61 0 0 0 .24-.4 4.61 4.61 0 0 0 .2-.41 4.61 4.61 0 0 0 .16-.44 4.61 4.61 0 0 0 .11-.44 4.61 4.61 0 0 0 .07-.46 4.61 4.61 0 0 0 .02-.46 4.61 4.61 0 0 0 0-.33 4.61 4.61 0 0 0-.01-.05c-1.14.37-2.63.61-4.3.61-1.96 0-3.7-.32-4.87-.82z"
     color="#000"
     overflow="visible"
     opacity=".5"
     fill="#06f"
     id="path10" />
</svg>
