<?xml version="1.0" encoding="UTF-8" standalone="no"?>
<svg
   xmlns:dc="http://purl.org/dc/elements/1.1/"
   xmlns:cc="http://creativecommons.org/ns#"
   xmlns:rdf="http://www.w3.org/1999/02/22-rdf-syntax-ns#"
   xmlns:svg="http://www.w3.org/2000/svg"
   xmlns="http://www.w3.org/2000/svg"
   xmlns:sodipodi="http://sodipodi.sourceforge.net/DTD/sodipodi-0.dtd"
   xmlns:inkscape="http://www.inkscape.org/namespaces/inkscape"
   width="48"
   height="48"
   viewBox="0 0 12.7 12.7"
   version="1.1"
   id="svg4"
   sodipodi:docname="alc.svg"
   inkscape:version="0.92.4 (5da689c313, 2019-01-14)">
  <metadata
     id="metadata10">
    <rdf:RDF>
      <cc:Work
         rdf:about="">
        <dc:format>image/svg+xml</dc:format>
        <dc:type
           rdf:resource="http://purl.org/dc/dcmitype/StillImage" />
        <dc:title></dc:title>
      </cc:Work>
    </rdf:RDF>
  </metadata>
  <defs
     id="defs8" />
  <sodipodi:namedview
     pagecolor="#ffffff"
     bordercolor="#666666"
     borderopacity="1"
     objecttolerance="10"
     gridtolerance="10"
     guidetolerance="10"
     inkscape:pageopacity="0"
     inkscape:pageshadow="2"
     inkscape:window-width="1085"
     inkscape:window-height="480"
     id="namedview6"
     showgrid="false"
     inkscape:zoom="4.9166667"
     inkscape:cx="2.1355932"
     inkscape:cy="24"
     inkscape:window-x="0"
     inkscape:window-y="25"
     inkscape:window-maximized="0"
     inkscape:current-layer="svg4" />
  <path
     d="M 6.3400003,0.07 A 6.29,6.29 0 0 0 0.05000003,6.37 6.29,6.29 0 0 0 6.3500003,12.65 6.29,6.29 0 0 0 12.63,6.36 6.29,6.29 0 0 0 6.3400003,0.07 Z m -0.01,0.94 A 5.4,5.4 0 0 1 11.73,6.41 5.4,5.4 0 0 1 6.3300003,11.82 5.4,5.4 0 0 1 0.92000003,6.42 5.4,5.4 0 0 1 6.3200003,1 Z M 2.8,2.5 H 2.72 A 0.2,0.2 0 0 0 2.63,2.55 c -0.2,0.16 -0.14,0.78 0.2,2.1 0.2,0.73 0.36,1.12 0.64,1.53 0.18,0.27 0.27,0.38 0.56,0.67 0.27,0.3 0.6,0.7 0.62,1.05 -0.08,0.69 -0.61,1.05 -0.64,1.63 0,0.7 0.36,1.28 1.0600003,1.28 a 0.6,0.6 0 0 0 0.28,-0.06 1.28,1.28 0 0 0 1,0.48 1.28,1.28 0 0 0 1,-0.5 c 0.1,0.05 0.19,0.08 0.28,0.08 0.7,0 1.06,-0.57 1.06,-1.28 -0.03,-0.58 -0.56,-0.94 -0.64,-1.63 0.01,-0.34 0.35,-0.75 0.62,-1.05 0.3,-0.3 0.38,-0.4 0.56,-0.67 0.28,-0.41 0.44,-0.8 0.63,-1.54 C 10.21,3.34 10.26,2.71 10.07,2.54 a 0.2,0.2 0 0 0 -0.09,-0.03 h -0.08 c -0.1,0 -0.23,0.05 -0.38,0.12 -0.3,0.15 -0.6,0.37 -0.94,0.7 -0.51,0.48 -0.7,0.76 -1.29,1.98 -0.18,0.36 -0.4,0.8 -0.66,1.19 -0.08,0.05 -0.28,0.05 -0.28,0.05 0,0 -0.2,0 -0.28,-0.05 a 9.26,9.26 0 0 1 -0.66,-1.2 A 5.63,5.63 0 0 0 4.12,3.33 3.72,3.72 0 0 0 3.18,2.63 1.13,1.13 0 0 0 2.8,2.51 Z M 2.95,3 2.99,3.01 c 0.26,0.13 0.52,0.32 0.84,0.62 0.48,0.47 0.6,0.66 1.2000003,1.87 0.14,0.29 0.32,0.64 0.53,1 -0.3,0.11 -0.58,0.3 -0.8,0.55 C 4.63,6.86 4.48,6.7 4.35,6.57 V 6.56 L 4.33,6.55 C 4.04,6.26 4,6.21 3.83,5.95 3.57,5.57 3.43,5.25 3.25,4.53 3.08,3.89 2.98,3.42 2.95,3.13 Z m 6.8000003,0 v 0.12 c -0.03,0.3 -0.13,0.77 -0.3,1.41 a 4.16,4.16 0 0 1 -0.57,1.42 c -0.18,0.26 -0.22,0.31 -0.51,0.6 h -0.01 l -0.01,0.02 c -0.13,0.13 -0.28,0.3 -0.41,0.48 -0.22,-0.25 -0.5,-0.44 -0.8,-0.56 0.21,-0.35 0.39,-0.7 0.53,-1 0.6,-1.2 0.72,-1.39 1.2,-1.86 0.32,-0.3 0.58,-0.5 0.84,-0.62 z m -4.43,4.93 c 0.42,0.05 0.6,0.4 0.6,0.66 a 0.21,0.21 0 0 1 0.03,0.1 0.21,0.21 0 0 1 -0.22,0.21 0.21,0.21 0 0 1 -0.04,0 h 0.04 c 0.13,0 0.2,-0.13 0.2,-0.3 a 0.21,0.21 0 0 0 -0.2,-0.12 0.21,0.21 0 0 0 -0.21,0.21 0.21,0.21 0 0 0 0.17,0.2 c -0.27,-0.01 -0.62,-0.22 -0.62,-0.48 0,-0.27 -0.02,-0.48 0.25,-0.48 z m 2.06,0 c 0.27,0 0.25,0.21 0.25,0.48 0,0.26 -0.36,0.47 -0.62,0.49 a 0.21,0.21 0 0 1 -0.04,0 0.21,0.21 0 0 1 -0.22,-0.21 0.21,0.21 0 0 1 0.03,-0.1 c 0,-0.26 0.18,-0.61 0.6,-0.66 z m -0.6,0.66 c 0,0.18 0.06,0.31 0.19,0.31 h 0.03 a 0.21,0.21 0 0 0 0.17,-0.21 0.21,0.21 0 0 0 -0.21,-0.21 0.21,0.21 0 0 0 -0.2,0.11 z m -0.43,0.74 a 0.9,0.9 0 0 1 0.6,0.21 c 0.16,0.2 -0.19,0.6 -0.6,0.64 l 0.04,0.01 v 0.54 c 0,0.06 0.04,0.1 0.1,0.1 h 0.22 a 0.1,0.1 0 0 0 0.1,-0.1 v -0.34 l 0.3,0.21 a 1,1 0 0 1 -0.76,0.36 1,1 0 0 1 -0.74,-0.33 l 0.28,-0.2 v 0.3 c 0,0.06 0.05,0.1 0.1,0.1 h 0.22 a 0.1,0.1 0 0 0 0.1,-0.1 v -0.54 l 0.04,-0.01 c -0.41,-0.03 -0.76,-0.44 -0.6,-0.64 a 0.9,0.9 0 0 1 0.6,-0.21 z m 0,0.85 z"
     id="path2"
     inkscape:connector-curvature="0"
     style="fill:#1a1a1a" />
</svg>
