<?xml version="1.0" encoding="UTF-8" standalone="no"?>
<svg
   xmlns:dc="http://purl.org/dc/elements/1.1/"
   xmlns:cc="http://creativecommons.org/ns#"
   xmlns:rdf="http://www.w3.org/1999/02/22-rdf-syntax-ns#"
   xmlns:svg="http://www.w3.org/2000/svg"
   xmlns="http://www.w3.org/2000/svg"
   xmlns:sodipodi="http://sodipodi.sourceforge.net/DTD/sodipodi-0.dtd"
   xmlns:inkscape="http://www.inkscape.org/namespaces/inkscape"
   width="48"
   height="48"
   viewBox="0 0 12.7 12.7"
   version="1.1"
   id="svg4"
   sodipodi:docname="alienarena.svg"
   inkscape:version="0.92.4 (5da689c313, 2019-01-14)">
  <metadata
     id="metadata10">
    <rdf:RDF>
      <cc:Work
         rdf:about="">
        <dc:format>image/svg+xml</dc:format>
        <dc:type
           rdf:resource="http://purl.org/dc/dcmitype/StillImage" />
        <dc:title></dc:title>
      </cc:Work>
    </rdf:RDF>
  </metadata>
  <defs
     id="defs8" />
  <sodipodi:namedview
     pagecolor="#ffffff"
     bordercolor="#666666"
     borderopacity="1"
     objecttolerance="10"
     gridtolerance="10"
     guidetolerance="10"
     inkscape:pageopacity="0"
     inkscape:pageshadow="2"
     inkscape:window-width="1085"
     inkscape:window-height="480"
     id="namedview6"
     showgrid="false"
     inkscape:zoom="4.9166667"
     inkscape:cx="2.1355932"
     inkscape:cy="24"
     inkscape:window-x="0"
     inkscape:window-y="25"
     inkscape:window-maximized="0"
     inkscape:current-layer="svg4" />
  <path
     d="M 6.3500003,0.061 A 6.29,6.29 0 0 0 0.06100003,6.351 6.29,6.29 0 0 0 6.3510003,12.639 6.29,6.29 0 0 0 12.639,6.351 6.29,6.29 0 0 0 6.3510003,0.06 Z m -0.018,0.936 A 5.407,5.407 0 0 1 11.739,6.404 5.407,5.407 0 0 1 6.3320003,11.811 5.407,5.407 0 0 1 0.92500003,6.404 5.407,5.407 0 0 1 6.3320003,0.997 Z m -0.006,0.756 C 4.222,1.753 2.516,2.988 2.516,5.438 c 0,2.45 2.023,5.84 3.8100003,5.84 1.682,0 3.8099997,-3.39 3.8099997,-5.84 0,-2.45 -1.7059997,-3.685 -3.8099997,-3.685 z m 2.345,4.763 c 0.158,-0.005 0.316,0.008 0.471,0.041 a 1.935,1.935 0 0 1 -2.297,2.297 1.935,1.935 0 0 1 1.825,-2.338 z M 3.981,6.549 c 0.473,0.017 0.9410003,0.203 1.3020003,0.559 0.481,0.474 0.656,1.136 0.525,1.747 C 5.1880003,8.985 4.518,8.811 4.036,8.337 A 1.89,1.89 0 0 1 3.51,6.59 C 3.665,6.557 3.823,6.544 3.98,6.55 Z"
     id="path2"
     inkscape:connector-curvature="0"
     style="fill:#1a1a1a" />
</svg>
