<?xml version="1.0" encoding="UTF-8" standalone="no"?>
<svg
   xmlns:dc="http://purl.org/dc/elements/1.1/"
   xmlns:cc="http://creativecommons.org/ns#"
   xmlns:rdf="http://www.w3.org/1999/02/22-rdf-syntax-ns#"
   xmlns:svg="http://www.w3.org/2000/svg"
   xmlns="http://www.w3.org/2000/svg"
   xmlns:sodipodi="http://sodipodi.sourceforge.net/DTD/sodipodi-0.dtd"
   xmlns:inkscape="http://www.inkscape.org/namespaces/inkscape"
   width="48"
   height="48"
   viewBox="0 0 12.7 12.7"
   version="1.1"
   id="svg6"
   sodipodi:docname="amarok.svg"
   inkscape:version="0.92.4 (5da689c313, 2019-01-14)">
  <defs
     id="defs10" />
  <sodipodi:namedview
     pagecolor="#ffffff"
     bordercolor="#666666"
     borderopacity="1"
     objecttolerance="10"
     gridtolerance="10"
     guidetolerance="10"
     inkscape:pageopacity="0"
     inkscape:pageshadow="2"
     inkscape:window-width="1085"
     inkscape:window-height="480"
     id="namedview8"
     showgrid="false"
     inkscape:zoom="4.9166667"
     inkscape:cx="2.1355932"
     inkscape:cy="24"
     inkscape:window-x="0"
     inkscape:window-y="25"
     inkscape:window-maximized="0"
     inkscape:current-layer="svg6" />
  <metadata
     id="metadata2">
    <rdf:RDF>
      <cc:Work>
        <dc:format>image/svg+xml</dc:format>
        <dc:type
           rdf:resource="http://purl.org/dc/dcmitype/StillImage" />
        <dc:title></dc:title>
      </cc:Work>
    </rdf:RDF>
  </metadata>
  <path
     d="M 6.3400003,0.07 A 6.29,6.29 0 0 0 0.05000003,6.37 6.29,6.29 0 0 0 6.3500003,12.65 6.29,6.29 0 0 0 12.63,6.36 6.29,6.29 0 0 0 6.3400003,0.07 Z m -0.01,0.94 A 5.4,5.4 0 0 1 11.73,6.41 5.4,5.4 0 0 1 6.3300003,11.82 5.4,5.4 0 0 1 0.92000003,6.42 5.4,5.4 0 0 1 6.3200003,1 Z m 0.02,0.32 A 5.03,5.03 0 0 0 1.98,8.83 C 2.52,8.53 2.74,8.02 2.62,8 2.55,7.7 2.02,7.24 1.88,6.5 2.1,6.43 2.69,6.44 2.8,6.39 2.93,6.32 3.33,5.84 3.45,5.83 3.57,5.82 3.83,5.76 4.03,5.67 4.23,5.57 5.0200003,4.76 5.1900003,4.66 c 0.17,-0.1 0.68,-0.1 0.85,-0.08 0.16,0.01 0.31,-0.06 0.42,-0.2 0.11,-0.15 1.29,-0.99 1.43,-1.06 0.15,-0.08 0.55,-0.55 0.76,-0.55 0.06,0 0.17,0.21 0.33,0.42 0.16,0.21 0.13,0.4 0.04,0.56 -0.38,0.34 -0.59,1 -0.7,1.54 0.4,-0.19 0.92,0.06 1.32,-0.27 0.09,0.04 0.08,0.4 0.08,0.51 0,0.12 -0.08,0.23 -0.39,0.34 -0.33,0.12 -1.11,0.62 -1.44,1.11 -0.32,0.5 -0.4,2.37 -0.43,2.6 l -0.04,0.67 c -0.04,0.28 0.3,0.64 0.45,0.89 a 5.03,5.03 0 0 0 -1.52,-9.81 z m -0.29,3.76 a 0.7,0.7 0 0 0 -0.36,0.1 c -0.29,0.28 -0.48,0.56 -0.7,1 0.48,-0.25 1.62,-0.5 1.23,-1.08 a 1.24,1.24 0 0 0 -0.17,-0.02 z"
     id="path4"
     inkscape:connector-curvature="0"
     style="fill:#1a1a1a" />
</svg>
