<?xml version="1.0" encoding="UTF-8" standalone="no"?>
<svg
   xmlns:dc="http://purl.org/dc/elements/1.1/"
   xmlns:cc="http://creativecommons.org/ns#"
   xmlns:rdf="http://www.w3.org/1999/02/22-rdf-syntax-ns#"
   xmlns:svg="http://www.w3.org/2000/svg"
   xmlns="http://www.w3.org/2000/svg"
   xmlns:sodipodi="http://sodipodi.sourceforge.net/DTD/sodipodi-0.dtd"
   xmlns:inkscape="http://www.inkscape.org/namespaces/inkscape"
   width="48"
   height="48"
   viewBox="0 0 12.7 12.7"
   version="1.1"
   id="svg4"
   sodipodi:docname="amule.svg"
   inkscape:version="0.92.4 (5da689c313, 2019-01-14)">
  <metadata
     id="metadata10">
    <rdf:RDF>
      <cc:Work
         rdf:about="">
        <dc:format>image/svg+xml</dc:format>
        <dc:type
           rdf:resource="http://purl.org/dc/dcmitype/StillImage" />
        <dc:title></dc:title>
      </cc:Work>
    </rdf:RDF>
  </metadata>
  <defs
     id="defs8" />
  <sodipodi:namedview
     pagecolor="#ffffff"
     bordercolor="#666666"
     borderopacity="1"
     objecttolerance="10"
     gridtolerance="10"
     guidetolerance="10"
     inkscape:pageopacity="0"
     inkscape:pageshadow="2"
     inkscape:window-width="1085"
     inkscape:window-height="480"
     id="namedview6"
     showgrid="false"
     inkscape:zoom="4.9166667"
     inkscape:cx="2.1355932"
     inkscape:cy="24"
     inkscape:window-x="0"
     inkscape:window-y="25"
     inkscape:window-maximized="0"
     inkscape:current-layer="svg4" />
  <path
     d="M 6.3440003,0.073 A 6.29,6.29 0 0 0 0.05400003,6.363 6.29,6.29 0 0 0 6.3440003,12.651 6.29,6.29 0 0 0 12.634,6.362 6.29,6.29 0 0 0 6.3440003,0.072 Z m -0.018,0.936 A 5.407,5.407 0 0 1 11.733,6.416 5.407,5.407 0 0 1 6.3260003,11.823 5.407,5.407 0 0 1 0.92000003,6.416 5.407,5.407 0 0 1 6.3260003,1.01 Z m 2.348,0.81 c -0.091,-0.015 -0.27,0.162 -0.415,0.324 -0.33,0.367 -0.647,0.775 -1.006,1.295 -0.24,0.348 -0.328,0.455 -0.402,0.84 a 2.604,2.604 0 0 0 -0.207,-0.042 v 0.001 a 2.144,2.144 0 0 0 -0.912,0.144 C 5.3000003,3.713 4.672,3.065 3.912,2.473 3.829,2.409 3.767,2.378 3.722,2.375 H 3.72 C 3.4,2.351 3.896,3.643 4.048,3.975 4.176,4.254 4.5,4.752 4.7850003,5.168 4.7210003,5.308 4.672,5.465 4.646,5.641 4.552,6.295 4.681,6.83 4.526,7.486 4.318,8.376 3.572,8.823 3.751,9.681 c 0.003,0.02 0.002,0.038 0.006,0.06 0.037,0.18 0.133,0.377 0.276,0.6 a 0.731,0.731 0 0 0 0.081,0.101 c 0.118,0.132 0.285,0.236 0.483,0.316 a 2.948,2.948 0 0 0 0.5980003,0.17 h 0.047 c 0.547,0.1 1.132,0.122 1.472,0.152 0.08,0.008 0.163,0.01 0.245,0.01 0.255,-0.005 0.513,-0.05 0.755,-0.13 h 10e-4 l 0.035,-0.014 a 2.47,2.47 0 0 0 0.27,-0.11 1.94,1.94 0 0 0 0.696,-0.546 c 0.148,-0.193 0.246,-0.416 0.272,-0.663 a 1.51,1.51 0 0 0 -0.14,-0.831 c -0.442,-0.972 -0.903,-2.152 -0.763,-3.345 a 0.921,0.921 0 0 0 -0.107,-0.478 1.058,1.058 0 0 0 -0.15,-0.19 c 0.373,-0.74 0.633,-1.694 0.844,-2.485 0.09,-0.341 0.073,-0.468 0.002,-0.48 z m -3.176,3.846 c 0.1,0 0.206,0.041 0.315,0.135 0.173,0.148 0.42,0.571 0.418,0.8 -0.005,0.589 -0.37,0.751 -0.808,0.882 -0.437,0.131 -0.486,-0.796 -0.469,-1.128 0.018,-0.334 0.247,-0.69 0.544,-0.689 z m 1.791,0.273 a 0.549,0.549 0 0 1 0.14,0.003 c 0.15,0.022 0.32,0.09 0.39,0.164 0.15,0.156 0.19,0.472 0.208,0.64 0.006,0.048 0.006,0.106 0.005,0.167 a 0.263,0.263 0 0 0 -0.216,-0.195 0.263,0.263 0 0 0 -0.298,0.223 0.263,0.263 0 0 0 0.223,0.297 0.263,0.263 0 0 0 0.282,-0.165 c -0.01,0.113 -0.024,0.236 -0.045,0.371 -0.044,0.29 -0.873,0.016 -1.032,-0.134 -0.16,-0.15 -0.237,-0.268 -0.197,-0.54 0.03,-0.21 0.377,-0.813 0.54,-0.831 z m -1.607,0.022 a 0.263,0.263 0 0 0 -0.252,0.225 0.263,0.263 0 0 0 0.222,0.298 0.263,0.263 0 0 0 0.298,-0.222 0.263,0.263 0 0 0 -0.223,-0.298 0.263,0.263 0 0 0 -0.045,-0.003 z m 2.426,2.005 c 0.21,0.11 0.324,0.298 0.271,0.665 -0.048,0.335 -0.636,0.753 -0.855,1.19 a 3.04,3.04 0 0 1 0.03,-0.392 c 0.057,-0.4 0.308,-1.082 0.554,-1.463 z M 4.679,8.126 c 0.2500003,0.444 0.4360003,0.847 0.5930003,1.303 0.074,0.217 0.078,0.447 0.053,0.684 C 5.3510003,9.553 4.361,9.301 4.474,8.524 A 0.68,0.68 0 0 1 4.679,8.126 Z"
     id="path2"
     inkscape:connector-curvature="0"
     style="fill:#1a1a1a" />
</svg>
