<?xml version="1.0" encoding="UTF-8" standalone="no"?>
<svg
   xmlns:dc="http://purl.org/dc/elements/1.1/"
   xmlns:cc="http://creativecommons.org/ns#"
   xmlns:rdf="http://www.w3.org/1999/02/22-rdf-syntax-ns#"
   xmlns:svg="http://www.w3.org/2000/svg"
   xmlns="http://www.w3.org/2000/svg"
   xmlns:sodipodi="http://sodipodi.sourceforge.net/DTD/sodipodi-0.dtd"
   xmlns:inkscape="http://www.inkscape.org/namespaces/inkscape"
   width="48"
   height="48"
   viewBox="0 0 12.7 12.7"
   version="1.1"
   id="svg11"
   sodipodi:docname="android-file-transfer.svg"
   inkscape:version="0.92.4 (5da689c313, 2019-01-14)">
  <metadata
     id="metadata15">
    <rdf:RDF>
      <cc:Work
         rdf:about="">
        <dc:format>image/svg+xml</dc:format>
        <dc:type
           rdf:resource="http://purl.org/dc/dcmitype/StillImage" />
        <dc:title></dc:title>
      </cc:Work>
    </rdf:RDF>
  </metadata>
  <sodipodi:namedview
     pagecolor="#ffffff"
     bordercolor="#666666"
     borderopacity="1"
     objecttolerance="10"
     gridtolerance="10"
     guidetolerance="10"
     inkscape:pageopacity="0"
     inkscape:pageshadow="2"
     inkscape:window-width="1085"
     inkscape:window-height="480"
     id="namedview13"
     showgrid="false"
     inkscape:zoom="4.9166667"
     inkscape:cx="2.1355932"
     inkscape:cy="24"
     inkscape:window-x="0"
     inkscape:window-y="25"
     inkscape:window-maximized="0"
     inkscape:current-layer="svg11" />
  <defs
     id="defs7">
    <linearGradient
       id="a">
      <stop
         offset="0"
         stop-color="#569914"
         id="stop2" />
      <stop
         offset="1"
         stop-color="#9cc94b"
         id="stop4" />
    </linearGradient>
  </defs>
  <path
     d="M 6.3400003,0.07 A 6.29,6.29 0 0 0 0.05000003,6.37 6.29,6.29 0 0 0 6.3500003,12.65 6.29,6.29 0 0 0 12.63,6.36 6.29,6.29 0 0 0 6.3400003,0.07 Z m -0.01,0.94 A 5.4,5.4 0 0 1 11.73,6.41 5.4,5.4 0 0 1 10.45,9.91 C 10.4,9.65 10.37,9.41 10.27,9.1 a 5.18,5.18 0 0 0 -0.7399997,-1.43 3.6,3.6 0 0 0 -1.44,-1.1 l 0.87,-1.5 a 0.26,0.26 0 0 0 -0.1,-0.36 0.26,0.26 0 0 0 -0.36,0.1 l -0.92,1.6 a 4.87,4.87 0 0 0 -2.46,0 L 4.2,4.8 A 0.2641969,0.2641969 0 1 0 3.74,5.06 l 0.87,1.5 A 3.5,3.5 0 0 0 3.17,7.66 4.22,4.22 0 0 0 2.43,9.09 C 2.33,9.41 2.29,9.67 2.25,9.94 A 5.4,5.4 0 0 0 2.62,10.34 5.4,5.4 0 0 1 0.92000003,6.41 5.4,5.4 0 0 1 6.3200003,1 Z m -1.04,0.72 L 3.17,3.32 5.3000003,4.9 V 4.37 h 2.12 V 4.9 l 2.11,-1.6 -2.11,-1.58 v 0.53 h -2.13 V 1.72 Z m -0.53,6.64 a 0.53,0.53 0 0 1 0.06,0 0.53,0.53 0 0 1 0.05,0.01 0.53,0.53 0 0 1 0.05,0.02 0.53,0.53 0 0 1 0.05,0.01 0.53,0.53 0 0 1 0.05,0.03 0.53,0.53 0 0 1 0.04,0.03 0.53,0.53 0 0 1 0.04,0.03 0.53,0.53 0 0 1 0.04,0.03 0.53,0.53 0 0 1 0.04,0.04 0.53,0.53 0 0 1 0.03,0.05 0.53,0.53 0 0 1 0.02,0.04 0.53,0.53 0 0 1 0.03,0.05 0.53,0.53 0 0 1 0.01,0.05 0.53,0.53 0 0 1 0.01,0.05 0.53,0.53 0 0 1 0.01,0.05 0.53,0.53 0 0 1 0,0.04 0.53,0.53 0 0 1 0,0.05 0.53,0.53 0 0 1 0,0.06 0.53,0.53 0 0 1 -0.02,0.05 0.53,0.53 0 0 1 -0.02,0.05 0.53,0.53 0 0 1 -0.02,0.05 0.53,0.53 0 0 1 -0.03,0.04 0.53,0.53 0 0 1 -0.03,0.04 0.53,0.53 0 0 1 -0.04,0.04 0.53,0.53 0 0 1 -0.04,0.04 0.53,0.53 0 0 1 -0.04,0.03 0.53,0.53 0 0 1 -0.05,0.02 0.53,0.53 0 0 1 -0.05,0.02 0.53,0.53 0 0 1 -0.05,0.02 0.53,0.53 0 0 1 -0.05,0.01 0.53,0.53 0 0 1 -0.05,0 0.53,0.53 0 0 1 -0.04,0.01 0.53,0.53 0 0 1 -0.05,0 0.53,0.53 0 0 1 -0.05,0 0.53,0.53 0 0 1 -0.05,-0.02 0.53,0.53 0 0 1 -0.05,-0.02 0.53,0.53 0 0 1 -0.05,-0.02 0.53,0.53 0 0 1 -0.05,-0.03 0.53,0.53 0 0 1 -0.04,-0.03 0.53,0.53 0 0 1 -0.04,-0.04 0.53,0.53 0 0 1 -0.03,-0.04 0.53,0.53 0 0 1 -0.03,-0.04 0.53,0.53 0 0 1 -0.03,-0.05 0.53,0.53 0 0 1 -0.02,-0.05 0.53,0.53 0 0 1 -0.02,-0.05 0.53,0.53 0 0 1 0,-0.05 0.53,0.53 0 0 1 -0.02,-0.05 0.53,0.53 0 0 1 0,-0.04 0.53,0.53 0 0 1 0,-0.05 0.53,0.53 0 0 1 0.01,-0.05 0.53,0.53 0 0 1 0.02,-0.05 0.53,0.53 0 0 1 0.02,-0.05 0.53,0.53 0 0 1 0.02,-0.05 0.53,0.53 0 0 1 0.03,-0.05 0.53,0.53 0 0 1 0.03,-0.04 0.53,0.53 0 0 1 0.03,-0.04 0.53,0.53 0 0 1 0.04,-0.03 0.53,0.53 0 0 1 0.05,-0.03 0.53,0.53 0 0 1 0.04,-0.03 0.53,0.53 0 0 1 0.05,-0.02 0.53,0.53 0 0 1 0.05,-0.02 0.53,0.53 0 0 1 0.05,-0.01 0.53,0.53 0 0 1 0.06,0 0.53,0.53 0 0 1 0.03,0 z m 3.18,0 a 0.53,0.53 0 0 1 0.05,0 0.53,0.53 0 0 1 0.05,0.01 0.53,0.53 0 0 1 0.05,0.02 0.53,0.53 0 0 1 0.05,0.01 0.53,0.53 0 0 1 0.05,0.03 0.53,0.53 0 0 1 0.05,0.03 0.53,0.53 0 0 1 0.04,0.03 0.53,0.53 0 0 1 0.04,0.03 0.53,0.53 0 0 1 0.03,0.04 0.53,0.53 0 0 1 0.03,0.05 0.53,0.53 0 0 1 0.03,0.04 0.53,0.53 0 0 1 0.02,0.05 0.53,0.53 0 0 1 0.02,0.05 0.53,0.53 0 0 1 0,0.05 0.53,0.53 0 0 1 0.02,0.05 0.53,0.53 0 0 1 0,0.04 0.53,0.53 0 0 1 0,0.05 0.53,0.53 0 0 1 -0.01,0.06 0.53,0.53 0 0 1 -0.02,0.05 0.53,0.53 0 0 1 -0.02,0.05 0.53,0.53 0 0 1 -0.02,0.05 0.53,0.53 0 0 1 -0.03,0.04 0.53,0.53 0 0 1 -0.03,0.04 0.53,0.53 0 0 1 -0.03,0.04 0.53,0.53 0 0 1 -0.04,0.04 0.53,0.53 0 0 1 -0.05,0.03 0.53,0.53 0 0 1 -0.04,0.02 0.53,0.53 0 0 1 -0.05,0.02 0.53,0.53 0 0 1 -0.05,0.02 0.53,0.53 0 0 1 -0.05,0.01 0.53,0.53 0 0 1 -0.06,0 0.53,0.53 0 0 1 -0.03,0.01 0.53,0.53 0 0 1 -0.06,0 0.53,0.53 0 0 1 -0.05,0 0.53,0.53 0 0 1 -0.05,-0.02 0.53,0.53 0 0 1 -0.05,-0.02 0.53,0.53 0 0 1 -0.05,-0.02 0.53,0.53 0 0 1 -0.04,-0.03 0.53,0.53 0 0 1 -0.04,-0.03 0.53,0.53 0 0 1 -0.04,-0.04 0.53,0.53 0 0 1 -0.04,-0.04 0.53,0.53 0 0 1 -0.03,-0.04 0.53,0.53 0 0 1 -0.02,-0.05 0.53,0.53 0 0 1 -0.03,-0.05 0.53,0.53 0 0 1 -0.01,-0.05 0.53,0.53 0 0 1 -0.01,-0.05 0.53,0.53 0 0 1 -0.01,-0.05 0.53,0.53 0 0 1 0,-0.04 0.53,0.53 0 0 1 0,-0.05 0.53,0.53 0 0 1 0,-0.05 0.53,0.53 0 0 1 0.02,-0.05 0.53,0.53 0 0 1 0.02,-0.05 0.53,0.53 0 0 1 0.02,-0.05 0.53,0.53 0 0 1 0.03,-0.05 0.53,0.53 0 0 1 0.03,-0.04 0.53,0.53 0 0 1 0.04,-0.04 0.53,0.53 0 0 1 0.04,-0.03 0.53,0.53 0 0 1 0.04,-0.03 0.53,0.53 0 0 1 0.05,-0.03 0.53,0.53 0 0 1 0.05,-0.02 0.53,0.53 0 0 1 0.05,-0.02 0.53,0.53 0 0 1 0.05,-0.01 0.53,0.53 0 0 1 0.05,0 0.53,0.53 0 0 1 0.04,0 z"
     id="path9"
     inkscape:connector-curvature="0"
     style="fill:#1a1a1a" />
</svg>
