<?xml version="1.0" encoding="UTF-8" standalone="no"?>
<svg
   xmlns:dc="http://purl.org/dc/elements/1.1/"
   xmlns:cc="http://creativecommons.org/ns#"
   xmlns:rdf="http://www.w3.org/1999/02/22-rdf-syntax-ns#"
   xmlns:svg="http://www.w3.org/2000/svg"
   xmlns="http://www.w3.org/2000/svg"
   xmlns:sodipodi="http://sodipodi.sourceforge.net/DTD/sodipodi-0.dtd"
   xmlns:inkscape="http://www.inkscape.org/namespaces/inkscape"
   width="48"
   height="48"
   viewBox="0 0 12.7 12.7"
   version="1.1"
   id="svg4"
   sodipodi:docname="androidstudio.svg"
   inkscape:version="0.92.4 (5da689c313, 2019-01-14)">
  <metadata
     id="metadata10">
    <rdf:RDF>
      <cc:Work
         rdf:about="">
        <dc:format>image/svg+xml</dc:format>
        <dc:type
           rdf:resource="http://purl.org/dc/dcmitype/StillImage" />
        <dc:title></dc:title>
      </cc:Work>
    </rdf:RDF>
  </metadata>
  <defs
     id="defs8" />
  <sodipodi:namedview
     pagecolor="#ffffff"
     bordercolor="#666666"
     borderopacity="1"
     objecttolerance="10"
     gridtolerance="10"
     guidetolerance="10"
     inkscape:pageopacity="0"
     inkscape:pageshadow="2"
     inkscape:window-width="1085"
     inkscape:window-height="480"
     id="namedview6"
     showgrid="false"
     inkscape:zoom="4.9166667"
     inkscape:cx="2.1355932"
     inkscape:cy="24"
     inkscape:window-x="0"
     inkscape:window-y="25"
     inkscape:window-maximized="0"
     inkscape:current-layer="svg4" />
  <path
     d="M 6.3400003,0.07 A 6.29,6.29 0 0 0 0.05000003,6.37 6.29,6.29 0 0 0 1.98,10.89 L 2.41,10.14 A 5.4,5.4 0 0 1 0.92000003,6.42 5.4,5.4 0 0 1 6.3200003,1 l 0.01,0.01 A 5.4,5.4 0 0 1 11.73,6.41 5.4,5.4 0 0 1 10.04,10.34 l 0.44,0.75 A 6.29,6.29 0 0 0 12.63,6.36 6.29,6.29 0 0 0 6.3400003,0.07 Z m -0.79,2.58 V 3.6 h -0.35 A 0.6,0.6 0 0 0 4.6,4.19 v 1.55 h 0.01 c 0,0.05 0.03,0.11 0.1000003,0.18 l 0.28,0.24 L 2.13,11.11 2.07,12.17 2.96,11.58 4.52,8.88 c 0.5600003,0.28 1.2000003,0.43 1.8700003,0.43 0.51,0 1.08,-0.09 1.58,-0.26 l 1.47,2.53 L 10.32,12.18 10.26,11.11 8.8300003,8.63 A 4.17,4.17 0 0 0 10.65,5.19 H 9.6900003 c 0,1.27 -0.38,1.57 -0.84,2.1 -0.15,0.18 -0.33,0.34 -0.52,0.48 l -0.92,-1.6 0.28,-0.25 c 0.06,-0.07 0.09,-0.13 0.09,-0.18 V 4.2 a 0.6,0.6 0 0 0 -0.6,-0.6 h -0.35 V 2.66 h -1.28 z m 0.64,1.58 v 0.01 c 0.35,0 0.63,0.28 0.63,0.63 0,0.35 -0.28,0.63 -0.63,0.63 a 0.63,0.63 0 0 1 -0.64,-0.63 c 0,-0.35 0.29,-0.63 0.64,-0.63 z m -0.49,2.58 0.18,0.16 c 0.08,0.08 0.2,0.12 0.3,0.12 a 0.4,0.4 0 0 0 0.3,-0.12 l 0.18,-0.16 0.8,1.38 a 4,4 0 0 1 -1.1,0.17 c -0.49,0 -0.96,-0.13 -1.37,-0.34 l 0.7,-1.21 z M 3.54,11.05 3.12,11.76 a 6.29,6.29 0 0 0 3.2200003,0.89 6.29,6.29 0 0 0 3.01,-0.77 l -0.42,-0.74 a 5.4,5.4 0 0 1 -2.61,0.68 A 5.4,5.4 0 0 1 3.54,11.05 Z"
     id="path2"
     inkscape:connector-curvature="0"
     style="fill:#1a1a1a" />
</svg>
