<?xml version="1.0" encoding="UTF-8" standalone="no"?>
<svg
   xmlns:dc="http://purl.org/dc/elements/1.1/"
   xmlns:cc="http://creativecommons.org/ns#"
   xmlns:rdf="http://www.w3.org/1999/02/22-rdf-syntax-ns#"
   xmlns:svg="http://www.w3.org/2000/svg"
   xmlns="http://www.w3.org/2000/svg"
   xmlns:sodipodi="http://sodipodi.sourceforge.net/DTD/sodipodi-0.dtd"
   xmlns:inkscape="http://www.inkscape.org/namespaces/inkscape"
   width="48"
   height="48"
   viewBox="0 0 12.7 12.7"
   version="1.1"
   id="svg8"
   sodipodi:docname="anoise.svg"
   inkscape:version="0.92.4 (5da689c313, 2019-01-14)">
  <defs
     id="defs12" />
  <sodipodi:namedview
     pagecolor="#ffffff"
     bordercolor="#666666"
     borderopacity="1"
     objecttolerance="10"
     gridtolerance="10"
     guidetolerance="10"
     inkscape:pageopacity="0"
     inkscape:pageshadow="2"
     inkscape:window-width="1085"
     inkscape:window-height="480"
     id="namedview10"
     showgrid="false"
     inkscape:zoom="4.9166667"
     inkscape:cx="2.1355932"
     inkscape:cy="24"
     inkscape:window-x="0"
     inkscape:window-y="25"
     inkscape:window-maximized="0"
     inkscape:current-layer="svg8" />
  <metadata
     id="metadata2">
    <rdf:RDF>
      <cc:Work>
        <dc:format>image/svg+xml</dc:format>
        <dc:type
           rdf:resource="http://purl.org/dc/dcmitype/StillImage" />
        <dc:title></dc:title>
      </cc:Work>
    </rdf:RDF>
  </metadata>
  <circle
     cx="6.35"
     cy="6.43"
     r="4.86"
     fill="#ffa63d"
     id="circle4" />
  <path
     d="M 6.3400003,0.07 A 6.29,6.29 0 0 0 0.06000003,6.37 6.29,6.29 0 0 0 6.3400003,12.65 6.29,6.29 0 0 0 12.64,6.36 6.29,6.29 0 0 0 6.3300003,0.07 Z m -0.01,0.94 A 5.4,5.4 0 0 1 11.73,6.41 5.4,5.4 0 0 1 6.3300003,11.82 5.4,5.4 0 0 1 0.92000003,6.42 5.4,5.4 0 0 1 6.3200003,1 Z m -0.66,2.41 -0.75,0.75 2.24,2.23 -2.24,2.26 0.75,0.75 2.23,-2.25 0.75,-0.75 -0.75,-0.74 -2.24,-2.25 z"
     id="path6"
     inkscape:connector-curvature="0"
     style="fill:#1a1a1a;fill-opacity:0.98999999" />
</svg>
