<?xml version="1.0" encoding="UTF-8" standalone="no"?>
<svg
   xmlns:dc="http://purl.org/dc/elements/1.1/"
   xmlns:cc="http://creativecommons.org/ns#"
   xmlns:rdf="http://www.w3.org/1999/02/22-rdf-syntax-ns#"
   xmlns:svg="http://www.w3.org/2000/svg"
   xmlns="http://www.w3.org/2000/svg"
   xmlns:sodipodi="http://sodipodi.sourceforge.net/DTD/sodipodi-0.dtd"
   xmlns:inkscape="http://www.inkscape.org/namespaces/inkscape"
   width="48"
   height="48"
   viewBox="0 0 12.7 12.7"
   version="1.1"
   id="svg6"
   sodipodi:docname="apk-icon-editor.svg"
   inkscape:version="0.92.4 (5da689c313, 2019-01-14)">
  <metadata
     id="metadata12">
    <rdf:RDF>
      <cc:Work
         rdf:about="">
        <dc:format>image/svg+xml</dc:format>
        <dc:type
           rdf:resource="http://purl.org/dc/dcmitype/StillImage" />
        <dc:title></dc:title>
      </cc:Work>
    </rdf:RDF>
  </metadata>
  <defs
     id="defs10" />
  <sodipodi:namedview
     pagecolor="#ffffff"
     bordercolor="#666666"
     borderopacity="1"
     objecttolerance="10"
     gridtolerance="10"
     guidetolerance="10"
     inkscape:pageopacity="0"
     inkscape:pageshadow="2"
     inkscape:window-width="1085"
     inkscape:window-height="480"
     id="namedview8"
     showgrid="false"
     inkscape:zoom="4.9166667"
     inkscape:cx="2.1355932"
     inkscape:cy="24"
     inkscape:window-x="0"
     inkscape:window-y="25"
     inkscape:window-maximized="0"
     inkscape:current-layer="svg6" />
  <path
     d="M6.31 1.52a4.87 4.87 0 0 0-.36.01 4.87 4.87 0 0 0-.49.06A4.87 4.87 0 0 0 5 1.7a4.87 4.87 0 0 0-.46.16 4.87 4.87 0 0 0-.45.2 4.87 4.87 0 0 0-.42.24 4.87 4.87 0 0 0-.4.29 4.87 4.87 0 0 0-.36.32 4.87 4.87 0 0 0-.33.36 4.87 4.87 0 0 0-.29.39 4.87 4.87 0 0 0-.25.41 4.87 4.87 0 0 0-.21.44 4.87 4.87 0 0 0-.17.46 4.87 4.87 0 0 0-.12.47 4.87 4.87 0 0 0-.07.48 4.87 4.87 0 0 0-.02.49 4.87 4.87 0 0 0 .01.35 4.87 4.87 0 0 0 .06.49 4.87 4.87 0 0 0 .1.47 4.87 4.87 0 0 0 .16.46 4.87 4.87 0 0 0 .2.45 4.87 4.87 0 0 0 .25.42 4.87 4.87 0 0 0 .28.4 4.87 4.87 0 0 0 .32.36 4.87 4.87 0 0 0 .36.33 4.87 4.87 0 0 0 .39.3 4.87 4.87 0 0 0 .41.25 4.87 4.87 0 0 0 .44.21 4.87 4.87 0 0 0 .46.17 4.87 4.87 0 0 0 .47.12 4.87 4.87 0 0 0 .48.07 4.87 4.87 0 0 0 .49.02 4.87 4.87 0 0 0 .35-.01 4.87 4.87 0 0 0 .49-.06 4.87 4.87 0 0 0 .47-.1 4.87 4.87 0 0 0 .46-.16 4.87 4.87 0 0 0 .45-.2 4.87 4.87 0 0 0 .42-.25 4.87 4.87 0 0 0 .4-.28 4.87 4.87 0 0 0 .36-.32 4.87 4.87 0 0 0 .33-.36 4.87 4.87 0 0 0 .3-.39 4.87 4.87 0 0 0 .25-.41 4.87 4.87 0 0 0 .21-.44 4.87 4.87 0 0 0 .17-.46 4.87 4.87 0 0 0 .12-.47 4.87 4.87 0 0 0 .07-.48 4.87 4.87 0 0 0 .02-.49 4.87 4.87 0 0 0-.01-.35 4.87 4.87 0 0 0-.06-.48 4.87 4.87 0 0 0-.1-.47 4.87 4.87 0 0 0-.16-.47 4.87 4.87 0 0 0-.2-.44 4.87 4.87 0 0 0-.24-.42 4.87 4.87 0 0 0-.28-.4 4.87 4.87 0 0 0-.33-.36 4.87 4.87 0 0 0-.35-.34 4.87 4.87 0 0 0-.39-.3 4.87 4.87 0 0 0-.41-.25 4.87 4.87 0 0 0-.44-.2 4.87 4.87 0 0 0-.46-.17 4.87 4.87 0 0 0-.47-.12 4.87 4.87 0 0 0-.48-.08 4.87 4.87 0 0 0-.49-.02v-.01zm-3.3 1.5h.95v.95H3V3zm1.43 0h.95v.95h-.95V3zm1.43 0h.95v.95h-.95V3zm1.43 0h.96v.95H7.3V3zm1.43 0h.96v.95h-.96V3zM3 4.44h.96v.95H3v-.95zm1.44 0h.95v.95h-.95v-.95zm1.43 0h.95v.95h-.95v-.95zm1.43 0h.96v.95H7.3v-.95zm1.43 0h.96v.95h-.96v-.95zM3 5.88h.96v.95H3v-.95zm1.44 0h.95v.95h-.95v-.95zm1.43 0h.95v.95h-.95v-.95zm1.43 0h.96v.95H7.3v-.95zm1.43 0h.96v.95h-.96v-.95zM3 7.3h.96v.95H3v-.95zm1.44 0h.95v.95h-.95v-.95zm1.43 0h.95v.95h-.95v-.95zm1.43 0h.96v.95H7.3v-.95zm1.43 0h.96v.95h-.96v-.95zM3 8.74h.96v.96H3v-.96zm1.44 0h.95v.96h-.95v-.96zm1.43 0h.95v.96h-.95v-.96zm1.43 0h.96v.96H7.3v-.96zm1.43 0h.96v.96h-.96v-.96z"
     fill="#447821"
     opacity=".83"
     id="path2" />
  <path
     d="M 6.3400003,0.07 A 6.29,6.29 0 0 0 0.05000003,6.37 6.29,6.29 0 0 0 6.3500003,12.65 6.29,6.29 0 0 0 12.63,6.36 6.29,6.29 0 0 0 6.3400003,0.07 Z m -0.02,0.93 0.01,0.01 A 5.4,5.4 0 0 1 11.73,6.41 5.4,5.4 0 0 1 6.3300003,11.82 5.4,5.4 0 0 1 0.92000003,6.42 5.4,5.4 0 0 1 6.3200003,1 Z"
     id="path4"
     inkscape:connector-curvature="0"
     style="fill:#1a1a1a" />
</svg>
