<?xml version="1.0" encoding="UTF-8" standalone="no"?>
<svg
   xmlns:dc="http://purl.org/dc/elements/1.1/"
   xmlns:cc="http://creativecommons.org/ns#"
   xmlns:rdf="http://www.w3.org/1999/02/22-rdf-syntax-ns#"
   xmlns:svg="http://www.w3.org/2000/svg"
   xmlns="http://www.w3.org/2000/svg"
   xmlns:sodipodi="http://sodipodi.sourceforge.net/DTD/sodipodi-0.dtd"
   xmlns:inkscape="http://www.inkscape.org/namespaces/inkscape"
   width="48"
   height="48"
   viewBox="0 0 12.7 12.7"
   version="1.1"
   id="svg4"
   sodipodi:docname="application-community.svg"
   inkscape:version="0.92.4 (5da689c313, 2019-01-14)">
  <metadata
     id="metadata10">
    <rdf:RDF>
      <cc:Work
         rdf:about="">
        <dc:format>image/svg+xml</dc:format>
        <dc:type
           rdf:resource="http://purl.org/dc/dcmitype/StillImage" />
        <dc:title></dc:title>
      </cc:Work>
    </rdf:RDF>
  </metadata>
  <defs
     id="defs8" />
  <sodipodi:namedview
     pagecolor="#ffffff"
     bordercolor="#666666"
     borderopacity="1"
     objecttolerance="10"
     gridtolerance="10"
     guidetolerance="10"
     inkscape:pageopacity="0"
     inkscape:pageshadow="2"
     inkscape:window-width="1085"
     inkscape:window-height="480"
     id="namedview6"
     showgrid="false"
     inkscape:zoom="4.9166667"
     inkscape:cx="2.1355932"
     inkscape:cy="24"
     inkscape:window-x="0"
     inkscape:window-y="25"
     inkscape:window-maximized="0"
     inkscape:current-layer="svg4" />
  <path
     d="M 6.3440003,0.077 A 6.267,6.267 0 0 0 0.07600003,6.344 6.267,6.267 0 0 0 6.3440003,12.611 6.267,6.267 0 0 0 12.611,6.344 6.267,6.267 0 0 0 6.3440003,0.077 Z m -0.018,0.932 A 5.388,5.388 0 0 1 11.714,6.399 5.388,5.388 0 0 1 6.3260003,11.786 5.388,5.388 0 0 1 0.93700003,6.398 5.388,5.388 0 0 1 6.3270003,1.009 Z m 1.796,2.45 v 0.002 c -0.538,-0.01 -1.103,0.198 -1.626,0.737 a 0.216,0.223 0 0 1 -0.29,0.012 C 5.6700003,3.735 5.1440003,3.514 4.662,3.472 A 2.04,2.04 0 0 0 4.192,3.484 C 3.194,3.637 2.44,4.574 2.431,5.699 c -0.008,0.903 0.222,1.45 0.862,2.146 0.616,0.671 1.6440003,1.475 3.1130003,2.717 1.404,-1.336 2.417,-2.231 3.046,-2.934 C 10.104,6.899 10.362,6.386 10.368,5.643 10.375,4.877 9.8170003,4.073 9.0480003,3.696 a 2.203,2.203 0 0 0 -0.926,-0.236 z"
     id="path2"
     inkscape:connector-curvature="0"
     style="fill:#1a1a1a" />
</svg>
