<?xml version="1.0" encoding="UTF-8" standalone="no"?>
<svg
   xmlns:dc="http://purl.org/dc/elements/1.1/"
   xmlns:cc="http://creativecommons.org/ns#"
   xmlns:rdf="http://www.w3.org/1999/02/22-rdf-syntax-ns#"
   xmlns:svg="http://www.w3.org/2000/svg"
   xmlns="http://www.w3.org/2000/svg"
   xmlns:sodipodi="http://sodipodi.sourceforge.net/DTD/sodipodi-0.dtd"
   xmlns:inkscape="http://www.inkscape.org/namespaces/inkscape"
   width="48"
   height="48"
   viewBox="0 0 12.7 12.7"
   version="1.1"
   id="svg6"
   sodipodi:docname="application-x-clementine.svg"
   inkscape:version="0.92.4 (5da689c313, 2019-01-14)">
  <metadata
     id="metadata12">
    <rdf:RDF>
      <cc:Work
         rdf:about="">
        <dc:format>image/svg+xml</dc:format>
        <dc:type
           rdf:resource="http://purl.org/dc/dcmitype/StillImage" />
        <dc:title></dc:title>
      </cc:Work>
    </rdf:RDF>
  </metadata>
  <defs
     id="defs10" />
  <sodipodi:namedview
     pagecolor="#ffffff"
     bordercolor="#666666"
     borderopacity="1"
     objecttolerance="10"
     gridtolerance="10"
     guidetolerance="10"
     inkscape:pageopacity="0"
     inkscape:pageshadow="2"
     inkscape:window-width="1085"
     inkscape:window-height="480"
     id="namedview8"
     showgrid="false"
     inkscape:zoom="4.9166667"
     inkscape:cx="2.1355932"
     inkscape:cy="24"
     inkscape:window-x="0"
     inkscape:window-y="25"
     inkscape:window-maximized="0"
     inkscape:current-layer="svg6" />
  <path
     fill="#a40"
     d="M6.35 1.852c-.844 0-1.406.562-1.406.562s.335 1.14.562 1.687c.241.58.844 1.687.844 1.687s.602-1.106.843-1.687c.227-.548.562-1.687.562-1.687s-.562-.562-1.405-.562m-1.789.72s-.796 0-1.392.597c-.596.596-.596 1.392-.596 1.392s1.043.568 1.59.795c.581.24 1.79.596 1.79.596s-.356-1.208-.597-1.789c-.227-.547-.795-1.59-.795-1.59m3.578 0s-.568 1.043-.795 1.59c-.24.581-.596 1.79-.596 1.79s1.207-.356 1.788-.597c.548-.227 1.59-.795 1.59-.795s0-.796-.595-1.392c-.597-.596-1.392-.596-1.392-.596M2.414 4.944s-.562.563-.562 1.406.562 1.406.562 1.406 1.14-.336 1.687-.563c.58-.24 1.687-.843 1.687-.843S4.682 5.747 4.1 5.507c-.548-.227-1.687-.563-1.687-.563m7.872 0s-1.14.336-1.687.563c-.58.24-1.687.843-1.687.843s1.106.603 1.687.843c.548.227 1.687.563 1.687.563s.562-.563.562-1.406-.562-1.406-.562-1.406M5.952 6.747s-1.207.356-1.788.597c-.548.227-1.59.795-1.59.795s0 .795.595 1.392c.597.596 1.392.596 1.392.596s.568-1.043.795-1.59c.24-.582.596-1.79.596-1.79m.796 0s.355 1.208.596 1.79c.227.547.795 1.59.795 1.59s.795 0 1.392-.596c.596-.597.596-1.392.596-1.392s-1.043-.568-1.59-.795c-.582-.24-1.79-.596-1.79-.596m-.397.164S5.747 8.018 5.507 8.6c-.227.548-.563 1.687-.563 1.687s.563.562 1.406.562 1.406-.562 1.406-.562-.336-1.14-.563-1.687c-.24-.58-.843-1.687-.843-1.687"
     opacity=".75"
     id="path2" />
  <path
     d="M 6.3500003,0.06 A 6.29,6.29 0 0 0 0.06000003,6.35 6.29,6.29 0 0 0 6.3500003,12.64 6.29,6.29 0 0 0 12.64,6.35 6.29,6.29 0 0 0 6.3500003,0.06 Z m -0.018,0.937 A 5.407,5.407 0 0 1 11.739,6.404 5.407,5.407 0 0 1 6.3320003,11.811 5.407,5.407 0 0 1 0.92500003,6.404 5.407,5.407 0 0 1 6.3320003,0.997 Z"
     id="path4"
     inkscape:connector-curvature="0"
     style="fill:#1a1a1a" />
</svg>
