<?xml version="1.0" encoding="UTF-8" standalone="no"?>
<svg
   xmlns:dc="http://purl.org/dc/elements/1.1/"
   xmlns:cc="http://creativecommons.org/ns#"
   xmlns:rdf="http://www.w3.org/1999/02/22-rdf-syntax-ns#"
   xmlns:svg="http://www.w3.org/2000/svg"
   xmlns="http://www.w3.org/2000/svg"
   xmlns:sodipodi="http://sodipodi.sourceforge.net/DTD/sodipodi-0.dtd"
   xmlns:inkscape="http://www.inkscape.org/namespaces/inkscape"
   width="48"
   height="48"
   viewBox="0 0 12.7 12.7"
   version="1.1"
   id="svg4"
   sodipodi:docname="apport.svg"
   inkscape:version="0.92.4 (5da689c313, 2019-01-14)">
  <metadata
     id="metadata10">
    <rdf:RDF>
      <cc:Work
         rdf:about="">
        <dc:format>image/svg+xml</dc:format>
        <dc:type
           rdf:resource="http://purl.org/dc/dcmitype/StillImage" />
        <dc:title></dc:title>
      </cc:Work>
    </rdf:RDF>
  </metadata>
  <defs
     id="defs8" />
  <sodipodi:namedview
     pagecolor="#ffffff"
     bordercolor="#666666"
     borderopacity="1"
     objecttolerance="10"
     gridtolerance="10"
     guidetolerance="10"
     inkscape:pageopacity="0"
     inkscape:pageshadow="2"
     inkscape:window-width="1085"
     inkscape:window-height="480"
     id="namedview6"
     showgrid="false"
     inkscape:zoom="4.9166667"
     inkscape:cx="2.1355932"
     inkscape:cy="24"
     inkscape:window-x="0"
     inkscape:window-y="25"
     inkscape:window-maximized="0"
     inkscape:current-layer="svg4" />
  <path
     d="M 6.3440003,0.073 A 6.29,6.29 0 0 0 0.05400003,6.363 6.29,6.29 0 0 0 6.3440003,12.651 6.29,6.29 0 0 0 12.634,6.362 6.29,6.29 0 0 0 6.3440003,0.072 Z m -0.018,0.936 A 5.407,5.407 0 0 1 11.733,6.416 5.407,5.407 0 0 1 6.3260003,11.823 5.407,5.407 0 0 1 0.92000003,6.416 5.407,5.407 0 0 1 6.3260003,1.01 Z m 1.065,1.398 c -0.495,0.007 -0.095,1.178 -0.319,1.656 -0.238,0.51 -0.455,0.371 -0.525,0.225 -0.07,-0.146 0.087,-1.492 -0.595,-1.226 -0.503,0.196 0.288,1.033 0.23,1.325 -0.179,0.893 -1.284,0.534 -1.471,0.285 C 4.524,4.423 3.176,2.48 2.513,3.484 1.849,4.488 4.517,4.981 4.473,5.026 4.427,5.071 5.1350003,5.369 5.0570003,5.491 4.9790003,5.612 4.8950003,5.894 4.508,6.013 4.121,6.132 3.469,5.473 3.309,6.166 c -0.16,0.694 0.941,0.15 1.22,0.106 0.2790003,-0.045 0.2660003,0.08 0.3320003,0.19 0.048,0.08 0.013,0.212 0.013,0.28 0,0.066 -0.032,0.456 -0.1820003,0.492 -0.74,0.18 -1.911,0.357 -1.48,1.078 0.43,0.722 1.403,-0.85 1.7880003,-0.956 0.385,-0.108 0.564,0.097 0.684,0.175 0.121,0.078 0.277,0.21 0.178,0.739 -0.1,0.528 -1.2510003,2.063 -0.32,2.023 0.93,-0.04 0.571,-1.715 0.737,-1.882 0.166,-0.166 0.565,-0.359 0.893,-0.268 0.327,0.09 0.34,0.964 0.532,0.803 0.3,-0.25 -0.358,-0.815 -0.237,-0.97 0.12,-0.154 0.206,-0.399 0.446,-0.473 0.841,-0.259 1.832,1.826 2.2969997,0.962 C 10.676,7.601 8.7600003,7.36 8.6660003,7.067 c -0.093,-0.293 -0.255,-0.38 -0.178,-0.502 0.078,-0.121 0.136,0.07 0.302,-0.096 C 8.9560003,6.302 10.117,7.302 10.283,6.636 10.448,5.969 8.6570003,6.203 8.6570003,6.068 c 0,-0.134 0.258,-0.315 0.23,-0.457 -0.04,-0.212 -0.223,-0.303 -0.083,-0.355 C 8.9430003,5.204 10.14,5.616 10.103,5.121 10.063,4.585 9.2890003,5.055 8.8520003,5.072 c -0.21,0.008 -0.251,-0.26 -0.248,-0.294 0.015,-0.196 0.209,-0.175 0.183,-0.322 -0.034,-0.189 -0.288,-0.056 -0.256,-0.21 0.082,-0.388 1.046,-0.605 0.653,-0.99 -0.392,-0.385 -0.665,0.562 -0.94,0.897 -0.195,0.238 -0.418,0.356 -0.642,0.288 -0.159,-0.05 -0.291,-0.018 -0.264,-0.426 0.026,-0.408 0.828,-1.427 0.165,-1.594 a 0.435,0.435 0 0 0 -0.112,-0.014 z"
     id="path2"
     inkscape:connector-curvature="0"
     style="fill:#1a1a1a" />
</svg>
