<?xml version="1.0" encoding="UTF-8" standalone="no"?>
<svg
   xmlns:dc="http://purl.org/dc/elements/1.1/"
   xmlns:cc="http://creativecommons.org/ns#"
   xmlns:rdf="http://www.w3.org/1999/02/22-rdf-syntax-ns#"
   xmlns:svg="http://www.w3.org/2000/svg"
   xmlns="http://www.w3.org/2000/svg"
   xmlns:sodipodi="http://sodipodi.sourceforge.net/DTD/sodipodi-0.dtd"
   xmlns:inkscape="http://www.inkscape.org/namespaces/inkscape"
   width="48"
   height="48"
   viewBox="0 0 12.7 12.7"
   version="1.1"
   id="svg4"
   sodipodi:docname="archive-manager.svg"
   inkscape:version="0.92.4 (5da689c313, 2019-01-14)">
  <metadata
     id="metadata10">
    <rdf:RDF>
      <cc:Work
         rdf:about="">
        <dc:format>image/svg+xml</dc:format>
        <dc:type
           rdf:resource="http://purl.org/dc/dcmitype/StillImage" />
        <dc:title></dc:title>
      </cc:Work>
    </rdf:RDF>
  </metadata>
  <defs
     id="defs8" />
  <sodipodi:namedview
     pagecolor="#ffffff"
     bordercolor="#666666"
     borderopacity="1"
     objecttolerance="10"
     gridtolerance="10"
     guidetolerance="10"
     inkscape:pageopacity="0"
     inkscape:pageshadow="2"
     inkscape:window-width="1085"
     inkscape:window-height="480"
     id="namedview6"
     showgrid="false"
     inkscape:zoom="4.9166667"
     inkscape:cx="2.1355932"
     inkscape:cy="24"
     inkscape:window-x="0"
     inkscape:window-y="25"
     inkscape:window-maximized="0"
     inkscape:current-layer="svg4" />
  <path
     d="M 6.3440003,0.073 A 6.29,6.29 0 0 0 0.05400003,6.363 6.29,6.29 0 0 0 6.3440003,12.651 6.29,6.29 0 0 0 12.634,6.362 6.29,6.29 0 0 0 6.3440003,0.072 Z m -0.27,0.945 V 1.34 h -0.82 a 0.267,0.267 0 0 0 -0.267,0.268 v 0.38 c 0,0.148 0.119,0.268 0.267,0.268 h 0.82 v 0.252 c 0,0.006 -0.003,0.01 -0.003,0.016 v 0.38 c 0,0.006 0.003,0.01 0.003,0.016 v 0.236 h -0.82 a 0.267,0.267 0 0 0 -0.267,0.269 v 0.38 c 0,0.148 0.119,0.268 0.267,0.268 h 0.82 v 0.222 l -0.003,0.015 v 0.38 c 0,0.006 0.003,0.01 0.003,0.016 v 0.267 h -0.82 a 0.267,0.267 0 0 0 -0.267,0.269 v 0.38 c 0,0.148 0.119,0.268 0.267,0.268 h 0.82 v 1.009 a 1.049,1.049 0 0 0 -0.794,1.018 v 2.143 c 0,0.585 0.47,1.056 1.055,1.056 0.585,0 1.056,-0.47 1.056,-1.056 V 7.917 c 0,-0.476 -0.315,-0.871 -0.747,-1.003 v -0.08 h 0.802 c 0.148,0 0.267,-0.12 0.267,-0.268 v -0.38 a 0.267,0.267 0 0 0 -0.267,-0.269 h -0.802 V 4.96 h 0.798 c 0.149,0 0.269,-0.12 0.269,-0.268 v -0.38 a 0.267,0.267 0 0 0 -0.269,-0.268 h -0.798 V 3.173 h 0.798 c 0.149,0 0.269,-0.12 0.269,-0.268 v -0.38 a 0.268,0.268 0 0 0 -0.269,-0.268 h -0.798 V 1.027 A 5.407,5.407 0 0 1 11.734,6.417 5.407,5.407 0 0 1 6.3260003,11.824 5.407,5.407 0 0 1 0.92000003,6.416 5.407,5.407 0 0 1 6.0750003,1.018 Z m 0.27,6.406 c 0.29,0 0.526,0.21 0.526,0.526 a 0.545,0.545 0 0 1 -0.527,0.527 0.545,0.545 0 0 1 -0.526,-0.527 c 0,-0.316 0.236,-0.526 0.526,-0.526 z m 0,1.58 c 0.29,0 0.526,0.21 0.526,0.527 v 0.526 a 0.545,0.545 0 0 1 -0.527,0.527 0.545,0.545 0 0 1 -0.526,-0.527 V 9.531 c 0,-0.316 0.236,-0.527 0.526,-0.527 z"
     id="path2"
     inkscape:connector-curvature="0"
     style="fill:#1a1a1a" />
</svg>
