<?xml version="1.0" encoding="UTF-8" standalone="no"?>
<svg
   xmlns:dc="http://purl.org/dc/elements/1.1/"
   xmlns:cc="http://creativecommons.org/ns#"
   xmlns:rdf="http://www.w3.org/1999/02/22-rdf-syntax-ns#"
   xmlns:svg="http://www.w3.org/2000/svg"
   xmlns="http://www.w3.org/2000/svg"
   xmlns:sodipodi="http://sodipodi.sourceforge.net/DTD/sodipodi-0.dtd"
   xmlns:inkscape="http://www.inkscape.org/namespaces/inkscape"
   width="48"
   height="48"
   viewBox="0 0 12.7 12.7"
   version="1.1"
   id="svg4"
   sodipodi:docname="atom.svg"
   inkscape:version="0.92.4 (5da689c313, 2019-01-14)">
  <metadata
     id="metadata10">
    <rdf:RDF>
      <cc:Work
         rdf:about="">
        <dc:format>image/svg+xml</dc:format>
        <dc:type
           rdf:resource="http://purl.org/dc/dcmitype/StillImage" />
        <dc:title></dc:title>
      </cc:Work>
    </rdf:RDF>
  </metadata>
  <defs
     id="defs8" />
  <sodipodi:namedview
     pagecolor="#ffffff"
     bordercolor="#666666"
     borderopacity="1"
     objecttolerance="10"
     gridtolerance="10"
     guidetolerance="10"
     inkscape:pageopacity="0"
     inkscape:pageshadow="2"
     inkscape:window-width="1085"
     inkscape:window-height="480"
     id="namedview6"
     showgrid="false"
     inkscape:zoom="4.9166667"
     inkscape:cx="2.1355932"
     inkscape:cy="24"
     inkscape:window-x="0"
     inkscape:window-y="25"
     inkscape:window-maximized="0"
     inkscape:current-layer="svg4" />
  <path
     d="M 6.3440003,0.073 A 6.29,6.29 0 0 0 0.05400003,6.363 6.29,6.29 0 0 0 6.3440003,12.651 6.29,6.29 0 0 0 12.634,6.362 6.29,6.29 0 0 0 6.3440003,0.072 Z m -0.018,0.936 A 5.407,5.407 0 0 1 11.733,6.416 5.407,5.407 0 0 1 6.3260003,11.823 5.407,5.407 0 0 1 0.92000003,6.416 5.407,5.407 0 0 1 6.3260003,1.01 Z m 0.023,0.213 c -0.26,0 -0.643,0.133 -1.013,0.739 h -0.076 a 0.602,0.602 0 0 0 -0.38,1.071 7.903,7.903 0 0 0 -0.125,0.458 C 3.402,3.04 2.347,3.07 1.986,3.654 1.7,4.117 1.913,4.832 2.59,5.659 2.787,5.902 3,6.134 3.226,6.352 A 7.82,7.82 0 0 0 2.59,7.038 C 1.913,7.871 1.7,8.585 1.986,9.042 2.124,9.267 2.436,9.517 3.129,9.517 H 3.302 A 0.602,0.602 0 0 0 4.454,9.304 C 4.55,9.277 4.647,9.247 4.7450003,9.214 c 0.336,1.383 0.912,2.264 1.603,2.264 0.69,0 1.265,-0.876 1.6,-2.256 a 5.338,5.338 0 0 0 1.603,0.3 C 10.098,9.522 10.511,9.367 10.71,9.046 10.94,8.682 10.85,8.153 10.46,7.528 a 0.599,0.599 0 0 0 0.122,-0.357 0.603,0.603 0 0 0 -0.8469997,-0.547 8.827,8.827 0 0 0 -0.263,-0.266 c 0.226,-0.215 0.439,-0.445 0.6369997,-0.685 0.676,-0.834 0.89,-1.548 0.603,-2.006 C 10.348,3.084 9.3020003,3.053 7.9500003,3.485 c -0.336,-1.385 -0.916,-2.262 -1.6,-2.262 z m 0.002,0.361 c 0.456,0 0.944,0.762 1.247,2.016 -0.427,0.164 -0.844,0.353 -1.249,0.566 -0.404,-0.21 -0.82,-0.395 -1.247,-0.556 0.036,-0.157 0.077,-0.307 0.12,-0.449 h 0.04 a 0.603,0.603 0 0 0 0.409,-1.047 c 0.217,-0.343 0.454,-0.53 0.68,-0.53 z m 3.238,1.965 C 9.9970003,3.55 10.281,3.652 10.401,3.846 c 0.193,0.312 -0.022,0.911 -0.5759997,1.59 -0.193,0.233 -0.4,0.455 -0.62,0.664 -0.313,-0.28 -0.641,-0.545 -0.982,-0.79 -0.034,-0.49 -0.097,-0.977 -0.191,-1.46 0.617,-0.207 1.149,-0.305 1.557,-0.302 z M 3.114,3.553 c 0.41,0 0.942,0.095 1.552,0.297 A 11.83,11.83 0 0 0 4.479,5.306 C 4.137,5.554 3.807,5.819 3.492,6.101 A 7.536,7.536 0 0 1 2.872,5.439 C 2.326,4.755 2.104,4.163 2.297,3.849 2.417,3.656 2.704,3.555 3.114,3.553 Z m 4.5620003,0.413 c 0.066,0.331 0.119,0.689 0.155,1.069 a 12.35,12.35 0 0 0 -0.477,-0.31 16.396,16.396 0 0 0 -0.61,-0.356 c 0.324,-0.157 0.635,-0.292 0.932,-0.403 z m -2.654,0.003 c 0.297,0.111 0.609,0.247 0.932,0.403 a 14.458,14.458 0 0 0 -1.087,0.666 c 0.036,-0.376 0.09,-0.731 0.155,-1.069 z m 1.327,0.602 a 13.034,13.034 0 0 1 1.52,0.933 13.887,13.887 0 0 1 -0.002,1.692 v 0.001 c -0.228,0.16 -0.462,0.317 -0.707,0.469 -0.244,0.151 -0.54,0.324 -0.811,0.463 a 13.05,13.05 0 0 1 -1.52,-0.933 13.835,13.835 0 0 1 0.002,-1.692 13.56,13.56 0 0 1 1.518,-0.933 z m 0,0.931 a 0.8485,0.8485 0 1 0 0,1.697 0.8485,0.8485 0 0 0 0,-1.697 z M 4.451,5.782 c 0,0.182 -0.013,0.377 -0.013,0.568 0,0.191 0.004,0.381 0.011,0.567 A 12.291,12.291 0 0 1 3.76,6.35 C 3.976,6.159 4.207,5.97 4.451,5.782 Z m 3.7980003,0.002 c 0.244,0.186 0.47,0.384 0.688,0.566 -0.213,0.19 -0.443,0.38 -0.688,0.567 a 14.416,14.416 0 0 0 0,-1.133 z M 3.491,6.603 c 0.314,0.28 0.641,0.544 0.982,0.79 0.033,0.49 0.097,0.977 0.191,1.459 -0.1,0.04 -0.2,0.07 -0.3,0.098 A 0.603,0.603 0 0 0 3.259,9.153 C 2.771,9.177 2.429,9.073 2.295,8.858 2.102,8.546 2.317,7.946 2.871,7.268 3.064,7.034 3.271,6.812 3.491,6.603 Z m 5.7150003,0.004 c 0.09,0.086 0.175,0.172 0.257,0.257 a 0.601,0.601 0 0 0 -0.09,0.31 c 0,0.334 0.271,0.605 0.606,0.605 A 0.585,0.585 0 0 0 10.161,7.746 c 0.3,0.478 0.38,0.872 0.24,1.11 -0.239,0.389 -1.1439997,0.403 -2.3699997,0 0.095,-0.481 0.158,-0.968 0.192,-1.458 0.34,-0.246 0.67,-0.51 0.983,-0.791 z m -4.34,1.058 c 0.158,0.106 0.317,0.209 0.479,0.31 0.204,0.12 0.406,0.242 0.607,0.364 -0.316,0.153 -0.627,0.286 -0.93,0.401 a 11.175,11.175 0 0 1 -0.155,-1.075 z m 2.965,0.001 c -0.036,0.38 -0.09,0.737 -0.155,1.065 v 0.002 a 10.786,10.786 0 0 1 -0.931,-0.403 c 0.204,-0.113 0.406,-0.23 0.609,-0.354 0.164,-0.1 0.322,-0.204 0.477,-0.31 z m -1.482,0.872 c 0.406,0.21 0.824,0.396 1.251,0.557 -0.306,1.265 -0.795,2.02 -1.251,2.02 -0.458,0 -0.946,-0.763 -1.249,-2.023 0.427,-0.16 0.844,-0.346 1.249,-0.554 z"
     id="path2"
     inkscape:connector-curvature="0"
     style="fill:#1a1a1a" />
</svg>
