<?xml version="1.0" encoding="UTF-8" standalone="no"?>
<svg
   xmlns:dc="http://purl.org/dc/elements/1.1/"
   xmlns:cc="http://creativecommons.org/ns#"
   xmlns:rdf="http://www.w3.org/1999/02/22-rdf-syntax-ns#"
   xmlns:svg="http://www.w3.org/2000/svg"
   xmlns="http://www.w3.org/2000/svg"
   xmlns:sodipodi="http://sodipodi.sourceforge.net/DTD/sodipodi-0.dtd"
   xmlns:inkscape="http://www.inkscape.org/namespaces/inkscape"
   width="48"
   height="48"
   viewBox="0 0 12.7 12.7"
   version="1.1"
   id="svg4"
   sodipodi:docname="atril.svg"
   inkscape:version="0.92.4 (5da689c313, 2019-01-14)">
  <metadata
     id="metadata10">
    <rdf:RDF>
      <cc:Work
         rdf:about="">
        <dc:format>image/svg+xml</dc:format>
        <dc:type
           rdf:resource="http://purl.org/dc/dcmitype/StillImage" />
        <dc:title></dc:title>
      </cc:Work>
    </rdf:RDF>
  </metadata>
  <defs
     id="defs8" />
  <sodipodi:namedview
     pagecolor="#ffffff"
     bordercolor="#666666"
     borderopacity="1"
     objecttolerance="10"
     gridtolerance="10"
     guidetolerance="10"
     inkscape:pageopacity="0"
     inkscape:pageshadow="2"
     inkscape:window-width="1085"
     inkscape:window-height="480"
     id="namedview6"
     showgrid="false"
     inkscape:zoom="4.9166667"
     inkscape:cx="2.1355932"
     inkscape:cy="24"
     inkscape:window-x="0"
     inkscape:window-y="25"
     inkscape:window-maximized="0"
     inkscape:current-layer="svg4" />
  <path
     d="M 6.3440003,0.073 A 6.29,6.29 0 0 0 0.05400003,6.363 6.29,6.29 0 0 0 6.3440003,12.651 6.29,6.29 0 0 0 12.634,6.362 6.29,6.29 0 0 0 6.3440003,0.072 Z m -0.018,0.936 A 5.407,5.407 0 0 1 10.626,3.147 c -0.8669997,0.92 -3.0999997,2.584 -3.7749997,2.584 -0.079,0 -0.11,-0.624 -0.178,-1.567 -0.07,-0.981 -0.045,-1.787 -0.161,-1.732 -0.016,0.007 -0.287,0.74 -0.686,1.463 C 4.8680003,5.631 4.261,6.392 3.279,7.046 2.854,7.329 2.186,7.686 2.039,7.881 1.899,8.067 1.984,7.953 2.551,7.791 3.967,7.384 3.861,7.061 2.791,8.344 1.333,10.092 2.066,9.549 3.593,8.121 c 0.7,-0.655 1.4640003,-1.114 1.6620003,-1.19 0.213,-0.083 0.347,-0.14 0.612,-0.158 0.314,-0.021 0.495,0.01 0.612,0.356 0.099,0.293 0.324,0.829 0.678,1.248 0.143,0.17 0.27,0.251 0.4,0.333 0.121,0.074 0.243,0.153 0.41,0.187 0.335,0.074 0.559,0.037 0.794,0.026 C 9.2640003,8.893 10.118,8.434 10.704,7.963 11.394,7.409 11.643,7.136 11.721,6.651 A 5.407,5.407 0 0 1 6.3260003,11.823 5.407,5.407 0 0 1 0.92000003,6.416 5.407,5.407 0 0 1 6.3260003,1.01 Z M 11.202,4.092 a 5.407,5.407 0 0 1 0.382,1.093 L 11.299,5.607 C 10.34,7.038 9.1900003,7.99 8.4130003,7.99 c -1.713,0 -1.941,-1.324 -0.314,-1.993 C 9.1800003,5.552 10.463,4.765 11.202,4.093 Z m -5.0379997,0.345 0.067,0.757 c -0.013,0.498 -0.288,0.78 -0.593,0.907 -0.302,0.127 -0.6,0.343 -0.572,0.005 0.015,-0.179 0.285,-0.465 0.61,-0.922 z"
     id="path2"
     inkscape:connector-curvature="0"
     style="fill:#1a1a1a" />
</svg>
