<?xml version="1.0" encoding="UTF-8" standalone="no"?>
<svg
   xmlns:dc="http://purl.org/dc/elements/1.1/"
   xmlns:cc="http://creativecommons.org/ns#"
   xmlns:rdf="http://www.w3.org/1999/02/22-rdf-syntax-ns#"
   xmlns:svg="http://www.w3.org/2000/svg"
   xmlns="http://www.w3.org/2000/svg"
   xmlns:sodipodi="http://sodipodi.sourceforge.net/DTD/sodipodi-0.dtd"
   xmlns:inkscape="http://www.inkscape.org/namespaces/inkscape"
   width="48"
   height="48"
   viewBox="0 0 12.7 12.7"
   version="1.1"
   id="svg4"
   sodipodi:docname="audacity.svg"
   inkscape:version="0.92.4 (5da689c313, 2019-01-14)">
  <metadata
     id="metadata10">
    <rdf:RDF>
      <cc:Work
         rdf:about="">
        <dc:format>image/svg+xml</dc:format>
        <dc:type
           rdf:resource="http://purl.org/dc/dcmitype/StillImage" />
        <dc:title></dc:title>
      </cc:Work>
    </rdf:RDF>
  </metadata>
  <defs
     id="defs8" />
  <sodipodi:namedview
     pagecolor="#ffffff"
     bordercolor="#666666"
     borderopacity="1"
     objecttolerance="10"
     gridtolerance="10"
     guidetolerance="10"
     inkscape:pageopacity="0"
     inkscape:pageshadow="2"
     inkscape:window-width="1085"
     inkscape:window-height="480"
     id="namedview6"
     showgrid="false"
     inkscape:zoom="4.9166667"
     inkscape:cx="2.1355932"
     inkscape:cy="24"
     inkscape:window-x="0"
     inkscape:window-y="25"
     inkscape:window-maximized="0"
     inkscape:current-layer="svg4" />
  <path
     d="M 6.3440003,0.073 A 6.29,6.29 0 0 0 0.05400003,6.363 6.29,6.29 0 0 0 6.3440003,12.651 6.29,6.29 0 0 0 12.634,6.362 6.29,6.29 0 0 0 6.3440003,0.072 Z m -0.018,0.936 A 5.407,5.407 0 0 1 11.733,6.416 5.407,5.407 0 0 1 6.3260003,11.823 5.407,5.407 0 0 1 0.92000003,6.416 5.407,5.407 0 0 1 6.3260003,1.01 Z m 0.027,0.8 c -0.318,0 -0.644,0.045 -0.965,0.13 C 3.332,2.479 2.116,4.539 2.667,6.551 L 3.296,6.394 A 3.077,3.077 0 0 1 3.18,5.577 c 0,-1.736 1.43,-3.137 3.2030003,-3.137 1.773,0 3.217,1.4 3.217,3.137 0,0.283 -0.044,0.556 -0.116,0.817 L 10.114,6.551 a 3.678,3.678 0 0 0 0,-1.948 C 9.6480003,2.905 8.0690003,1.793 6.3540003,1.809 Z m 0.805,4.785 v 0.003 c -0.029,-0.005 -0.056,0.014 -0.073,0.028 -0.017,0.015 -0.022,0.028 -0.03,0.044 -0.015,0.031 -0.02,0.07 -0.029,0.114 -0.017,0.09 -0.034,0.21 -0.043,0.358 -0.02,0.297 -0.034,0.692 -0.044,1.089 -0.01,0.397 -0.02,0.793 -0.044,1.088 a 2.876,2.876 0 0 1 -0.044,0.359 c -0.002,0.01 -0.012,0.01 -0.015,0.014 a 1.664,1.664 0 0 1 -0.044,-0.272 c -0.02,-0.233 -0.02,-0.544 -0.029,-0.86 a 14.918,14.918 0 0 0 -0.044,-0.874 1.891,1.891 0 0 0 -0.043,-0.3 0.35,0.35 0 0 0 -0.044,-0.1 c -0.019,-0.03 -0.042,-0.058 -0.089,-0.058 a 0.17,0.17 0 0 0 -0.102,0.043 c -0.022,0.021 -0.031,0.044 -0.043,0.072 -0.025,0.055 -0.034,0.12 -0.045,0.2 a 5.94,5.94 0 0 0 -0.043,0.573 c -0.008,0.206 -0.01,0.41 -0.03,0.559 a 0.732,0.732 0 0 1 -0.043,0.171 0.13,0.13 0 0 1 -0.015,0.03 c -0.003,0 -0.01,-0.011 -0.015,-0.015 a 0.216,0.216 0 0 1 -0.029,-0.072 1.657,1.657 0 0 1 -0.03,-0.272 c -0.005,-0.103 -0.003,-0.212 -0.028,-0.301 a 0.25,0.25 0 0 0 -0.059,-0.114 0.208,0.208 0 0 0 -0.146,-0.058 c -0.063,0.005 -0.105,0.051 -0.131,0.1 a 0.562,0.562 0 0 0 -0.06,0.173 c -0.022,0.133 -0.023,0.306 -0.029,0.472 -0.006,0.166 -0.01,0.328 -0.029,0.444 -0.008,0.052 -0.032,0.09 -0.044,0.115 -0.004,-0.01 -0.01,-0.014 -0.014,-0.029 a 1.547,1.547 0 0 1 -0.045,-0.258 12.971,12.971 0 0 1 -0.043,-0.816 c -0.01,-0.3 -0.009,-0.603 -0.03,-0.831 a 1.868,1.868 0 0 0 -0.043,-0.287 c -0.01,-0.036 -0.027,-0.058 -0.044,-0.086 -0.017,-0.027 -0.042,-0.071 -0.088,-0.071 a 0.135,0.135 0 0 0 -0.102,0.057 c -0.017,0.026 -0.02,0.052 -0.03,0.086 a 1.58,1.58 0 0 0 -0.044,0.258 c -0.021,0.206 -0.032,0.476 -0.043,0.745 -0.012,0.269 -0.022,0.533 -0.044,0.73 -0.011,0.098 -0.029,0.18 -0.045,0.23 -0.009,-0.026 -0.036,-0.056 -0.043,-0.101 -0.018,-0.113 -0.02,-0.258 -0.03,-0.416 -0.009,-0.158 -0.018,-0.318 -0.043,-0.443 a 0.59,0.59 0 0 0 -0.058,-0.172 C 4.8060003,7.897 4.7630003,7.856 4.701,7.856 A 0.136,0.136 0 0 0 4.598,7.914 0.263,0.263 0 0 0 4.554,8 C 4.534,8.07 4.519,8.163 4.511,8.271 4.494,8.488 4.501,8.776 4.496,9.06 4.491,9.343 4.476,9.625 4.452,9.834 A 1.2,1.2 0 0 1 4.408,10.076 C 4.401,10.096 4.399,10.109 4.394,10.12 4.386,10.107 4.372,10.092 4.364,10.062 A 1.417,1.417 0 0 1 4.335,9.891 h 0.03 L 4.321,9.747 V 9.72 C 4.298,9.453 4.283,9.1 4.277,8.746 4.271,8.382 4.265,8.018 4.247,7.743 4.239,7.605 4.236,7.485 4.217,7.399 4.209,7.357 4.19,7.33 4.174,7.299 4.166,7.283 4.161,7.269 4.145,7.256 A 0.12,0.12 0 0 0 4.072,7.227 c -0.05,0 -0.073,0.042 -0.088,0.072 -0.016,0.03 -0.02,0.06 -0.03,0.1 C 3.937,7.479 3.919,7.586 3.911,7.714 3.903,7.837 3.901,8.008 3.896,8.158 L 3.545,6.84 2.755,7.055 a 0.773,0.773 0 0 0 -0.556,0.96 l 0.41,1.519 a 0.8,0.8 0 0 0 0.98,0.558 c 0.23,-0.037 0.381,-0.095 0.614,-0.157 0.01,0.051 0.017,0.116 0.03,0.157 0.012,0.044 0.022,0.083 0.044,0.115 0.021,0.032 0.068,0.073 0.117,0.072 0.04,0 0.079,-0.03 0.102,-0.057 0.023,-0.028 0.03,-0.065 0.044,-0.101 A 1.21,1.21 0 0 0 4.598,9.848 C 4.623,9.629 4.622,9.345 4.628,9.061 4.632,8.777 4.641,8.496 4.658,8.287 4.665,8.183 4.671,8.097 4.686,8.044 A 0.34,0.34 0 0 1 4.701,8 c 0.001,0 0.001,-0.009 0.014,0.014 0.014,0.023 0.018,0.074 0.03,0.129 0.021,0.11 0.034,0.258 0.043,0.415 0.01,0.157 0.024,0.32 0.045,0.445 0.01,0.062 0.021,0.11 0.043,0.157 C 4.887,9.183 4.9,9.213 4.92,9.231 a 0.11,0.11 0 0 0 0.073,0.03 c 0.043,0 0.084,-0.032 0.103,-0.058 A 0.28,0.28 0 0 0 5.139,9.117 1.48,1.48 0 0 0 5.183,8.859 C 5.207,8.654 5.216,8.397 5.228,8.129 5.238,7.859 5.251,7.582 5.272,7.384 5.28,7.304 5.289,7.248 5.3,7.197 c 0.013,0.058 0.036,0.137 0.044,0.23 0.02,0.22 0.034,0.517 0.044,0.816 0.01,0.3 0.02,0.602 0.044,0.831 0.012,0.115 0.023,0.212 0.044,0.286 0.01,0.037 0.025,0.059 0.044,0.086 0.018,0.029 0.043,0.07 0.088,0.072 0.063,0.004 0.12,-0.052 0.146,-0.1 C 5.779,9.371 5.788,9.311 5.798,9.245 5.819,9.115 5.835,8.953 5.842,8.788 5.848,8.622 5.851,8.461 5.871,8.343 5.881,8.284 5.886,8.24 5.9,8.214 5.914,8.188 5.927,8.186 5.93,8.186 c 0.016,0 0.02,0.002 0.028,0.013 0.01,0.01 0.021,0.026 0.03,0.058 0.019,0.064 0.024,0.17 0.03,0.272 0.005,0.103 0.007,0.211 0.029,0.3 0.01,0.045 0.03,0.08 0.058,0.115 0.029,0.035 0.08,0.058 0.132,0.058 0.035,0 0.066,-0.007 0.087,-0.03 C 6.346,8.951 6.357,8.914 6.369,8.886 a 0.82,0.82 0 0 0 0.043,-0.2 C 6.433,8.526 6.448,8.319 6.456,8.113 6.464,7.908 6.464,7.703 6.486,7.555 A 0.582,0.582 0 0 1 6.529,7.397 c 0.003,0.01 0.01,0.016 0.014,0.029 0.017,0.061 0.034,0.155 0.045,0.272 0.02,0.233 0.02,0.543 0.03,0.86 0.007,0.315 0.021,0.632 0.043,0.872 0.01,0.12 0.023,0.225 0.044,0.302 0.01,0.038 0.025,0.072 0.044,0.1 A 0.124,0.124 0 0 0 6.851,9.89 C 6.878,9.89 6.893,9.875 6.909,9.86 6.926,9.847 6.945,9.834 6.954,9.818 A 0.443,0.443 0 0 0 6.998,9.703 C 7.019,9.609 7.028,9.482 7.041,9.331 7.066,9.029 7.075,8.625 7.085,8.228 7.095,7.831 7.111,7.431 7.129,7.139 7.136,7.029 7.134,6.955 7.144,6.881 7.158,6.969 7.178,7.074 7.188,7.211 7.21,7.531 7.234,7.961 7.246,8.386 7.258,8.811 7.268,9.241 7.289,9.56 7.3,9.72 7.316,9.85 7.334,9.947 c 0.009,0.048 0.014,0.081 0.029,0.114 0.007,0.017 0.015,0.042 0.03,0.057 0.014,0.016 0.041,0.03 0.072,0.03 A 0.118,0.118 0 0 0 7.553,10.09 0.318,0.318 0 0 0 7.597,10.004 C 7.617,9.937 7.629,9.849 7.641,9.746 7.664,9.541 7.671,9.269 7.684,9.002 7.697,8.734 7.706,8.468 7.728,8.27 7.739,8.172 7.758,8.093 7.773,8.041 c 0.008,0.025 0.022,0.044 0.029,0.086 0.018,0.112 0.02,0.271 0.029,0.43 0.01,0.16 0.018,0.318 0.043,0.445 A 0.582,0.582 0 0 0 7.933,9.173 0.178,0.178 0 0 0 8.08,9.259 C 8.115,9.259 8.144,9.238 8.167,9.216 8.191,9.195 8.199,9.172 8.211,9.145 A 0.74,0.74 0 0 0 8.27,8.943 C 8.293,8.783 8.292,8.576 8.299,8.371 8.306,8.165 8.324,7.961 8.343,7.811 8.353,7.738 8.358,7.675 8.373,7.64 c 0.002,0.004 0.01,0.004 0.014,0.014 0.015,0.048 0.034,0.135 0.043,0.23 0.02,0.19 0.024,0.44 0.03,0.702 0.006,0.26 0.007,0.53 0.029,0.73 0.008,0.077 0.027,0.131 0.044,0.186 l -0.103,0.387 0.776,0.2 a 0.801,0.801 0 0 0 0.98,-0.558 l 0.41,-1.519 A 0.773,0.773 0 0 0 10.039,7.052 L 9.249,6.838 9.119,7.325 C 9.113,7.311 9.112,7.295 9.104,7.282 9.081,7.25 9.049,7.224 9.001,7.224 8.958,7.224 8.918,7.254 8.898,7.282 A 0.248,0.248 0 0 0 8.855,7.367 1.619,1.619 0 0 0 8.811,7.654 c -0.02,0.223 -0.024,0.51 -0.03,0.802 0,0.053 0.002,0.091 0,0.143 L 8.635,9.144 C 8.625,8.973 8.611,8.789 8.606,8.586 A 9.501,9.501 0 0 0 8.562,7.869 C 8.552,7.769 8.541,7.677 8.519,7.611 A 0.26,0.26 0 0 0 8.474,7.525 0.106,0.106 0 0 0 8.387,7.482 C 8.351,7.482 8.306,7.489 8.284,7.511 8.263,7.533 8.251,7.569 8.24,7.597 a 0.812,0.812 0 0 0 -0.044,0.2 C 8.176,7.957 8.174,8.165 8.167,8.371 A 5.46,5.46 0 0 1 8.123,8.929 C 8.113,9.003 8.11,9.052 8.094,9.086 8.088,9.1 8.068,9.098 8.064,9.101 A 0.47,0.47 0 0 1 8.021,8.972 3.484,3.484 0 0 1 7.977,8.542 4.201,4.201 0 0 0 7.933,8.112 0.644,0.644 0 0 0 7.889,7.941 0.156,0.156 0 0 0 7.846,7.883 0.142,0.142 0 0 0 7.758,7.855 C 7.715,7.855 7.687,7.886 7.67,7.912 7.653,7.937 7.65,7.965 7.64,7.998 7.621,8.064 7.608,8.153 7.597,8.256 7.574,8.461 7.551,8.734 7.538,9.001 7.525,9.268 7.516,9.534 7.494,9.731 A 1.533,1.533 0 0 1 7.465,9.903 3.321,3.321 0 0 1 7.421,9.546 C 7.4,9.231 7.39,8.811 7.378,8.386 7.366,7.96 7.356,7.536 7.333,7.21 A 3.807,3.807 0 0 0 7.289,6.809 C 7.28,6.759 7.275,6.715 7.261,6.68 7.253,6.663 7.244,6.653 7.231,6.637 a 0.128,0.128 0 0 0 -0.073,-0.043 z"
     id="path2"
     inkscape:connector-curvature="0"
     style="fill:#1a1a1a" />
</svg>
