<?xml version="1.0" encoding="UTF-8" standalone="no"?>
<svg
   xmlns:dc="http://purl.org/dc/elements/1.1/"
   xmlns:cc="http://creativecommons.org/ns#"
   xmlns:rdf="http://www.w3.org/1999/02/22-rdf-syntax-ns#"
   xmlns:svg="http://www.w3.org/2000/svg"
   xmlns="http://www.w3.org/2000/svg"
   xmlns:sodipodi="http://sodipodi.sourceforge.net/DTD/sodipodi-0.dtd"
   xmlns:inkscape="http://www.inkscape.org/namespaces/inkscape"
   width="48"
   height="48"
   viewBox="0 0 12.7 12.7"
   version="1.1"
   id="svg4"
   sodipodi:docname="audacious.svg"
   inkscape:version="0.92.4 (5da689c313, 2019-01-14)">
  <metadata
     id="metadata10">
    <rdf:RDF>
      <cc:Work
         rdf:about="">
        <dc:format>image/svg+xml</dc:format>
        <dc:type
           rdf:resource="http://purl.org/dc/dcmitype/StillImage" />
        <dc:title></dc:title>
      </cc:Work>
    </rdf:RDF>
  </metadata>
  <defs
     id="defs8" />
  <sodipodi:namedview
     pagecolor="#ffffff"
     bordercolor="#666666"
     borderopacity="1"
     objecttolerance="10"
     gridtolerance="10"
     guidetolerance="10"
     inkscape:pageopacity="0"
     inkscape:pageshadow="2"
     inkscape:window-width="1085"
     inkscape:window-height="480"
     id="namedview6"
     showgrid="false"
     inkscape:zoom="4.9166667"
     inkscape:cx="2.1355932"
     inkscape:cy="24"
     inkscape:window-x="0"
     inkscape:window-y="25"
     inkscape:window-maximized="0"
     inkscape:current-layer="svg4" />
  <path
     d="M 6.3440003,0.073 A 6.29,6.29 0 0 0 0.05400003,6.363 6.29,6.29 0 0 0 6.3440003,12.651 6.29,6.29 0 0 0 12.634,6.362 6.29,6.29 0 0 0 6.3440003,0.072 Z m -0.018,0.936 A 5.407,5.407 0 0 1 11.733,6.416 5.407,5.407 0 0 1 6.3260003,11.823 5.407,5.407 0 0 1 0.92000003,6.416 5.407,5.407 0 0 1 6.3260003,1.01 Z m 0.348,1.992 v 0.003 c -0.113,-0.003 -0.228,0.002 -0.347,0.004 C 5.6210003,3.038 4.372,3.011 3.885,3.588 3.587,3.94 3.726,4.756 4.182,4.841 4.7500003,4.947 5.7120003,4.686 6.3270003,4.751 c 0.43,0.044 0.556,0.389 0.206,0.629 -0.37,0.253 -1.211,0.176 -1.636,0.304 C 3.43,6.124 2.903,7.059 3.262,8.325 3.496,9.15 4.325,9.763 5.2300003,9.797 c 1.74,-0.002 1.416,-0.881 2.258,-0.424 0.278,0.32 0.836,0.422 1.126,0.197 0.466,-0.361 1.168,-0.555 0.672,-1.295 -0.237,-0.354 0.316,-0.813 0.191,-2.577 -0.11,-1.564 -1.11,-2.637 -2.803,-2.697 z m -0.226,3.784 c 0.392,0 0.7,0.274 0.7,0.616 0,0.341 -0.308,0.622 -0.7,0.622 -0.392,0 -0.716,-0.28 -0.716,-0.622 0,-0.342 0.324,-0.616 0.716,-0.616 z"
     id="path2"
     inkscape:connector-curvature="0"
     style="fill:#1a1a1a" />
</svg>
