<?xml version="1.0" encoding="UTF-8" standalone="no"?>
<svg
   xmlns:dc="http://purl.org/dc/elements/1.1/"
   xmlns:cc="http://creativecommons.org/ns#"
   xmlns:rdf="http://www.w3.org/1999/02/22-rdf-syntax-ns#"
   xmlns:svg="http://www.w3.org/2000/svg"
   xmlns="http://www.w3.org/2000/svg"
   xmlns:sodipodi="http://sodipodi.sourceforge.net/DTD/sodipodi-0.dtd"
   xmlns:inkscape="http://www.inkscape.org/namespaces/inkscape"
   width="48"
   height="48"
   viewBox="0 0 12.7 12.7"
   version="1.1"
   id="svg4"
   sodipodi:docname="babe.svg"
   inkscape:version="0.92.4 (5da689c313, 2019-01-14)">
  <metadata
     id="metadata10">
    <rdf:RDF>
      <cc:Work
         rdf:about="">
        <dc:format>image/svg+xml</dc:format>
        <dc:type
           rdf:resource="http://purl.org/dc/dcmitype/StillImage" />
        <dc:title></dc:title>
      </cc:Work>
    </rdf:RDF>
  </metadata>
  <defs
     id="defs8" />
  <sodipodi:namedview
     pagecolor="#ffffff"
     bordercolor="#666666"
     borderopacity="1"
     objecttolerance="10"
     gridtolerance="10"
     guidetolerance="10"
     inkscape:pageopacity="0"
     inkscape:pageshadow="2"
     inkscape:window-width="1085"
     inkscape:window-height="480"
     id="namedview6"
     showgrid="false"
     inkscape:zoom="4.9166667"
     inkscape:cx="2.1355932"
     inkscape:cy="24"
     inkscape:window-x="0"
     inkscape:window-y="25"
     inkscape:window-maximized="0"
     inkscape:current-layer="svg4" />
  <path
     d="M 6.3400003,0.07 A 6.29,6.29 0 0 0 0.05000003,6.37 6.29,6.29 0 0 0 6.3500003,12.65 6.29,6.29 0 0 0 12.63,6.36 6.29,6.29 0 0 0 6.3400003,0.07 Z m -0.01,0.94 A 5.4,5.4 0 0 1 11.73,6.41 5.4,5.4 0 0 1 6.3300003,11.82 5.4,5.4 0 0 1 0.92000003,6.42 5.4,5.4 0 0 1 6.3200003,1 Z M 4.1,2.74 V 3.85 H 5.3400003 V 2.74 Z m 3.2400003,0 v 1.11 h 1.24 V 2.74 Z M 2.35,3.48 V 4.59 H 3.6 V 3.48 Z m 6.7300003,0 V 4.59 H 10.33 V 3.48 Z m -3.36,0.74 v 1.11 h 1.24 V 4.22 Z M 4.1,4.59 V 5.7 H 5.3400003 V 4.6 Z m 3.2400003,0 V 5.7 h 1.24 V 4.6 Z M 2.35,5.33 V 6.44 H 3.6 v -1.1 z m 6.7300003,0 V 6.44 H 10.33 v -1.1 z m -3.36,0.74 v 1.11 h 1.24 V 6.08 Z M 4.1,6.44 v 1.11 h 1.2400003 v -1.1 z m 3.2400003,0 v 1.11 h 1.24 V 6.45 Z M 2.35,7.18 V 8.3 H 3.6 V 7.2 Z m 6.7300003,0 V 8.3 H 10.33 V 7.2 Z m -3.36,0.74 v 1.11 h 1.24 V 7.93 Z M 4.1,8.3 V 9.4 H 5.3400003 V 8.3 Z m 3.2400003,0 v 1.1 h 1.24 V 8.3 Z m -1.61,1.48 v 1.1 h 1.24 v -1.1 z"
     id="path2"
     inkscape:connector-curvature="0"
     style="fill:#1a1a1a" />
</svg>
