<?xml version="1.0" encoding="UTF-8" standalone="no"?>
<svg
   xmlns:dc="http://purl.org/dc/elements/1.1/"
   xmlns:cc="http://creativecommons.org/ns#"
   xmlns:rdf="http://www.w3.org/1999/02/22-rdf-syntax-ns#"
   xmlns:svg="http://www.w3.org/2000/svg"
   xmlns="http://www.w3.org/2000/svg"
   xmlns:sodipodi="http://sodipodi.sourceforge.net/DTD/sodipodi-0.dtd"
   xmlns:inkscape="http://www.inkscape.org/namespaces/inkscape"
   width="48"
   height="48"
   viewBox="0 0 12.7 12.7"
   version="1.1"
   id="svg4"
   sodipodi:docname="bitcoin128.svg"
   inkscape:version="0.92.4 (5da689c313, 2019-01-14)">
  <metadata
     id="metadata10">
    <rdf:RDF>
      <cc:Work
         rdf:about="">
        <dc:format>image/svg+xml</dc:format>
        <dc:type
           rdf:resource="http://purl.org/dc/dcmitype/StillImage" />
        <dc:title></dc:title>
      </cc:Work>
    </rdf:RDF>
  </metadata>
  <defs
     id="defs8" />
  <sodipodi:namedview
     pagecolor="#ffffff"
     bordercolor="#666666"
     borderopacity="1"
     objecttolerance="10"
     gridtolerance="10"
     guidetolerance="10"
     inkscape:pageopacity="0"
     inkscape:pageshadow="2"
     inkscape:window-width="1085"
     inkscape:window-height="480"
     id="namedview6"
     showgrid="false"
     inkscape:zoom="4.9166667"
     inkscape:cx="2.1355932"
     inkscape:cy="24"
     inkscape:window-x="0"
     inkscape:window-y="25"
     inkscape:window-maximized="0"
     inkscape:current-layer="svg4" />
  <path
     d="M 6.3400003,0.07 A 6.29,6.29 0 0 0 0.05000003,6.37 6.29,6.29 0 0 0 6.3500003,12.65 6.29,6.29 0 0 0 12.63,6.36 6.29,6.29 0 0 0 6.3400003,0.07 Z m -0.01,0.94 A 5.4,5.4 0 0 1 11.73,6.41 5.4,5.4 0 0 1 6.3300003,11.82 5.4,5.4 0 0 1 0.92000003,6.42 5.4,5.4 0 0 1 6.3200003,1 Z m -1.28,0.89 V 3.38 H 3.2 v 0.74 h 0.62 c 0.35,0 0.45,0.25 0.49,0.41 V 8.2 C 4.3,8.3 4.31,8.57 4.07,8.58 H 3.2 v 0.74 h 1.8500003 v 1.48 l 0.74,-0.01 V 9.32 h 0.73 l 0.03,1.48 h 0.74 l -0.02,-1.48 c 2.23,0 2.23,-1.12 2.23,-1.67 0,-0.56 -0.23,-1.3 -1.11,-1.3 0.5,0 0.74,-0.84 0.74,-1.48 0,-0.84 -0.74,-1.49 -1.85,-1.49 V 1.9 h -0.74 v 1.48 h -0.75 V 1.9 Z m 0.74,2.22 c 0.75,0 1.86,0 1.86,0.93 0,0.93 -1.11,0.93 -1.86,0.93 z m 0,2.6 c 1.49,0 2.23,0 2.23,0.93 0,0.93 -0.74,0.93 -2.23,0.93 z"
     id="path2"
     inkscape:connector-curvature="0"
     style="fill:#1a1a1a" />
</svg>
