<?xml version="1.0" encoding="UTF-8" standalone="no"?>
<svg
   xmlns:dc="http://purl.org/dc/elements/1.1/"
   xmlns:cc="http://creativecommons.org/ns#"
   xmlns:rdf="http://www.w3.org/1999/02/22-rdf-syntax-ns#"
   xmlns:svg="http://www.w3.org/2000/svg"
   xmlns="http://www.w3.org/2000/svg"
   xmlns:sodipodi="http://sodipodi.sourceforge.net/DTD/sodipodi-0.dtd"
   xmlns:inkscape="http://www.inkscape.org/namespaces/inkscape"
   width="48"
   height="48"
   viewBox="0 0 12.7 12.7"
   version="1.1"
   id="svg4"
   sodipodi:docname="bleachbit.svg"
   inkscape:version="0.92.4 (5da689c313, 2019-01-14)">
  <metadata
     id="metadata10">
    <rdf:RDF>
      <cc:Work
         rdf:about="">
        <dc:format>image/svg+xml</dc:format>
        <dc:type
           rdf:resource="http://purl.org/dc/dcmitype/StillImage" />
        <dc:title></dc:title>
      </cc:Work>
    </rdf:RDF>
  </metadata>
  <defs
     id="defs8" />
  <sodipodi:namedview
     pagecolor="#ffffff"
     bordercolor="#666666"
     borderopacity="1"
     objecttolerance="10"
     gridtolerance="10"
     guidetolerance="10"
     inkscape:pageopacity="0"
     inkscape:pageshadow="2"
     inkscape:window-width="1085"
     inkscape:window-height="480"
     id="namedview6"
     showgrid="false"
     inkscape:zoom="4.9166667"
     inkscape:cx="2.1355932"
     inkscape:cy="24"
     inkscape:window-x="0"
     inkscape:window-y="25"
     inkscape:window-maximized="0"
     inkscape:current-layer="svg4" />
  <path
     d="M 6.3440003,0.073 A 6.29,6.29 0 0 0 0.05400003,6.363 6.29,6.29 0 0 0 6.3440003,12.651 6.29,6.29 0 0 0 12.634,6.362 6.29,6.29 0 0 0 6.3440003,0.072 Z m -0.018,0.936 A 5.407,5.407 0 0 1 11.733,6.416 5.407,5.407 0 0 1 6.3260003,11.823 5.407,5.407 0 0 1 0.92000003,6.416 5.407,5.407 0 0 1 6.3260003,1.01 Z m 2.554,1.144 c -0.106,0.008 -0.224,0.077 -0.32,0.23 l -0.436,0.817 -0.378,0.834 -0.461,0.91 -0.319,0.749 -0.354,-0.149 -0.51,-0.218 h -0.125 l -0.107,0.03 -0.172,0.224 -0.498,0.654 0.024,0.065 0.053,0.077 0.368,0.218 0.462,0.284 c 0.558,0.338 0.883,0.78 1.485,0.95 l 0.75,0.086 h 0.126 l 0.008,-0.033 0.109,-0.667 0.09,-0.54 0.008,-0.116 -0.065,-0.12 -0.44,-0.201 -0.254,-0.11 -0.156,-0.099 -0.018,-0.007 0.021,-0.033 0.26,-0.643 0.235,-0.568 0.294,-0.767 0.227,-0.543 0.192,-0.484 0.158,-0.468 c 0.06,-0.22 -0.08,-0.375 -0.257,-0.362 z m -3.784,4.29 L 4.551,7.063 4.13,7.47 3.661,7.784 3.098,8.079 2.445,8.319 2.036,8.415 2.018,8.468 l 0.024,0.141 0.095,0.236 0.202,0.39 0.195,0.288 0.38,0.397 0.172,0.17 0.154,0.054 0.7,-0.006 -0.415,0.283 -0.006,0.071 0.248,0.195 0.338,0.195 c 0.437,0.242 0.8320003,-0.237 0.8320003,-0.237 0,0 -0.212,0.363 -0.2,0.49 h 0.416 l 0.22,-0.034 0.248,-0.125 -0.083,0.13 0.451,0.005 c 0.477,-0.01 0.792,-0.285 1.074,-0.578 l 0.296,-0.349 0.231,-0.347 0.172,-0.32 0.273,-0.63 0.208,-0.514 0.1,-0.272 h -0.098 l -0.75,-0.085 c -0.602,-0.17 -0.926,-0.613 -1.484,-0.95 l -0.463,-0.285 -0.367,-0.217 -0.053,-0.078 -0.012,-0.03 -0.02,-0.012 z"
     id="path2"
     inkscape:connector-curvature="0"
     style="fill:#1a1a1a" />
</svg>
