<?xml version="1.0" encoding="UTF-8" standalone="no"?>
<svg
   xmlns:dc="http://purl.org/dc/elements/1.1/"
   xmlns:cc="http://creativecommons.org/ns#"
   xmlns:rdf="http://www.w3.org/1999/02/22-rdf-syntax-ns#"
   xmlns:svg="http://www.w3.org/2000/svg"
   xmlns="http://www.w3.org/2000/svg"
   xmlns:sodipodi="http://sodipodi.sourceforge.net/DTD/sodipodi-0.dtd"
   xmlns:inkscape="http://www.inkscape.org/namespaces/inkscape"
   width="48"
   height="48"
   viewBox="0 0 12.7 12.7"
   version="1.1"
   id="svg4"
   sodipodi:docname="bluegriffon.svg"
   inkscape:version="0.92.4 (5da689c313, 2019-01-14)">
  <metadata
     id="metadata10">
    <rdf:RDF>
      <cc:Work
         rdf:about="">
        <dc:format>image/svg+xml</dc:format>
        <dc:type
           rdf:resource="http://purl.org/dc/dcmitype/StillImage" />
        <dc:title></dc:title>
      </cc:Work>
    </rdf:RDF>
  </metadata>
  <defs
     id="defs8" />
  <sodipodi:namedview
     pagecolor="#ffffff"
     bordercolor="#666666"
     borderopacity="1"
     objecttolerance="10"
     gridtolerance="10"
     guidetolerance="10"
     inkscape:pageopacity="0"
     inkscape:pageshadow="2"
     inkscape:window-width="1085"
     inkscape:window-height="480"
     id="namedview6"
     showgrid="false"
     inkscape:zoom="4.9166667"
     inkscape:cx="2.1355932"
     inkscape:cy="24"
     inkscape:window-x="0"
     inkscape:window-y="25"
     inkscape:window-maximized="0"
     inkscape:current-layer="svg4" />
  <path
     d="M 6.3500003,0.061 A 6.29,6.29 0 0 0 0.06100003,6.351 6.29,6.29 0 0 0 6.3510003,12.639 6.29,6.29 0 0 0 12.639,6.351 6.29,6.29 0 0 0 11.383,2.591 l -0.64,0.697 A 5.407,5.407 0 0 1 11.739,6.404 5.407,5.407 0 0 1 6.3320003,11.811 5.407,5.407 0 0 1 0.92500003,6.404 5.407,5.407 0 0 1 6.3320003,0.997 a 5.407,5.407 0 0 1 2.538,0.636 l 0.924,-0.543 a 6.29,6.29 0 0 0 -3.444,-1.029 z M 11.205,0.847 c 0,-0.013 -0.152,0.09 -0.338,0.231 C 9.1140003,2.4 6.9220003,3.557 5.6950003,3.807 l -0.23,0.047 -0.089,0.23 C 5.0710003,4.888 4.202,5.457 2.841,5.747 A 3.125,3.125 0 0 0 2.328,5.893 1.457,1.457 0 0 0 1.773,6.449 C 1.685,6.619 1.671,6.692 1.685,6.923 1.695,7.117 1.722,7.22 1.777,7.279 1.851,7.359 2.035,7.402 1.989,7.328 1.952,7.27 2.125,7.084 2.296,6.998 2.573,6.859 3.003,6.794 3.454,6.8 c 0.08,0 0.177,0.005 0.243,0.01 0.338,0.024 0.673,0.087 0.951,0.191 0.1500003,0.056 0.2760003,0.123 0.3800003,0.199 0.383,0.196 0.706,0.452 0.977,0.747 l 0.002,-0.029 c 0.002,-0.194 0.008,-0.353 0.014,-0.353 0.007,0 0.031,0.05 0.055,0.111 0.057,0.148 0.087,0.303 0.093,0.46 0.515,0.64 0.819,1.427 0.997,2.188 0.239,-0.406 0.465,-0.943 0.466,-1.162 0.001,-0.325 0.23,0.312 0.302,0.842 l 0.05,0.367 0.09,-0.222 c 0.152,-0.372 0.223,-0.76 0.223,-1.217 a 3.25,3.25 0 0 0 -0.027,-0.515 c -0.015,-0.047 -0.01,-0.085 0.01,-0.085 0.05,0 0.443,0.394 0.544,0.545 0.095,0.142 0.102,0.08 0.024,-0.208 -0.207,-0.763 -0.8,-1.483 -1.645,-1.996 l -0.327,-0.198 0.162,-0.005 c 0.09,-0.003 0.218,-0.018 0.286,-0.033 l 0.124,-0.027 -0.165,-0.055 -0.163,-0.055 0.263,-0.053 a 3,3 0 0 0 0.554,-0.188 l 0.292,-0.136 -0.37,0.015 -0.37,0.014 0.288,-0.096 c 0.4,-0.132 1.168,-0.528 1.119,-0.577 a 1.825,1.825 0 0 0 -0.32,0.066 c -0.495,0.126 -0.548,0.099 -0.16,-0.085 0.376,-0.179 0.907,-0.516 1.168,-0.742 l 0.164,-0.142 -0.308,0.136 c -0.261,0.116 -0.858,0.307 -0.96,0.307 -0.017,0 0.088,-0.06 0.234,-0.136 0.417,-0.213 0.794,-0.496 1.26,-0.946 L 10.406,3.321 10.056,3.503 C 9.7260003,3.674 9.0290003,3.982 9.0290003,3.956 c 0,-0.006 0.088,-0.073 0.196,-0.147 C 9.6410003,3.519 10.378,2.755 10.815,2.16 L 10.973,1.944 10.584,2.243 C 10.17,2.561 9.3220003,3.101 9.2890003,3.069 c -0.011,-0.011 0.03,-0.052 0.092,-0.092 C 9.5620003,2.86 10.361,1.973 10.799,1.401 11.023,1.11 11.206,0.861 11.206,0.847 Z"
     id="path2"
     inkscape:connector-curvature="0"
     style="fill:#1a1a1a" />
</svg>
