<?xml version="1.0" encoding="UTF-8" standalone="no"?>
<svg
   xmlns:dc="http://purl.org/dc/elements/1.1/"
   xmlns:cc="http://creativecommons.org/ns#"
   xmlns:rdf="http://www.w3.org/1999/02/22-rdf-syntax-ns#"
   xmlns:svg="http://www.w3.org/2000/svg"
   xmlns="http://www.w3.org/2000/svg"
   xmlns:sodipodi="http://sodipodi.sourceforge.net/DTD/sodipodi-0.dtd"
   xmlns:inkscape="http://www.inkscape.org/namespaces/inkscape"
   width="48"
   height="48"
   viewBox="0 0 12.7 12.7"
   version="1.1"
   id="svg4"
   sodipodi:docname="bomber.svg"
   inkscape:version="0.92.4 (5da689c313, 2019-01-14)">
  <metadata
     id="metadata10">
    <rdf:RDF>
      <cc:Work
         rdf:about="">
        <dc:format>image/svg+xml</dc:format>
        <dc:type
           rdf:resource="http://purl.org/dc/dcmitype/StillImage" />
        <dc:title></dc:title>
      </cc:Work>
    </rdf:RDF>
  </metadata>
  <defs
     id="defs8" />
  <sodipodi:namedview
     pagecolor="#ffffff"
     bordercolor="#666666"
     borderopacity="1"
     objecttolerance="10"
     gridtolerance="10"
     guidetolerance="10"
     inkscape:pageopacity="0"
     inkscape:pageshadow="2"
     inkscape:window-width="1085"
     inkscape:window-height="480"
     id="namedview6"
     showgrid="false"
     inkscape:zoom="4.9166667"
     inkscape:cx="2.1355932"
     inkscape:cy="24"
     inkscape:window-x="0"
     inkscape:window-y="25"
     inkscape:window-maximized="0"
     inkscape:current-layer="svg4" />
  <path
     d="M 6.3400003,0.07 A 6.29,6.29 0 0 0 0.05000003,6.37 6.29,6.29 0 0 0 6.3500003,12.65 6.29,6.29 0 0 0 12.63,6.36 6.29,6.29 0 0 0 6.3400003,0.07 Z m -0.02,0.93 0.01,0.01 A 5.4,5.4 0 0 1 11.73,6.41 5.4,5.4 0 0 1 6.3300003,11.82 5.4,5.4 0 0 1 0.92000003,6.42 5.4,5.4 0 0 1 6.3200003,1 Z M 3.52,2.46 C 3.28,2.54 4.06,3.98 3.87,4.08 L 3.13,4.36 V 4.04 H 2.18 V 6.9 H 3.13 V 6.58 L 5.6600003,6.9 C 5.8800003,6.92 2.18,9.11 2.18,9.11 c 1.1,0 12.25,-2.94 7.83,-5.02 A 7.72,7.72 0 0 0 5.1900003,3.61 C 4.9400003,3.67 3.73,2.39 3.51,2.47 Z m 4.4400003,1.26 a 8.33,8.33 0 0 1 0.78,0.17 l 0.09,0.03 a 6.02,6.02 0 0 1 0.62,0.21 C 10.24,4.43 10.66,4.77 10.79,5.15 9.2700003,5.2 8.0300003,4.8 7.9600003,3.9 Z"
     id="path2"
     inkscape:connector-curvature="0"
     style="fill:#1a1a1a" />
</svg>
