<?xml version="1.0" encoding="UTF-8" standalone="no"?>
<svg
   xmlns:dc="http://purl.org/dc/elements/1.1/"
   xmlns:cc="http://creativecommons.org/ns#"
   xmlns:rdf="http://www.w3.org/1999/02/22-rdf-syntax-ns#"
   xmlns:svg="http://www.w3.org/2000/svg"
   xmlns="http://www.w3.org/2000/svg"
   xmlns:sodipodi="http://sodipodi.sourceforge.net/DTD/sodipodi-0.dtd"
   xmlns:inkscape="http://www.inkscape.org/namespaces/inkscape"
   width="48"
   height="48"
   viewBox="0 0 12.7 12.7"
   version="1.1"
   id="svg4"
   sodipodi:docname="bomi.svg"
   inkscape:version="0.92.4 (5da689c313, 2019-01-14)">
  <metadata
     id="metadata10">
    <rdf:RDF>
      <cc:Work
         rdf:about="">
        <dc:format>image/svg+xml</dc:format>
        <dc:type
           rdf:resource="http://purl.org/dc/dcmitype/StillImage" />
        <dc:title></dc:title>
      </cc:Work>
    </rdf:RDF>
  </metadata>
  <defs
     id="defs8" />
  <sodipodi:namedview
     pagecolor="#ffffff"
     bordercolor="#666666"
     borderopacity="1"
     objecttolerance="10"
     gridtolerance="10"
     guidetolerance="10"
     inkscape:pageopacity="0"
     inkscape:pageshadow="2"
     inkscape:window-width="1085"
     inkscape:window-height="480"
     id="namedview6"
     showgrid="false"
     inkscape:zoom="4.9166667"
     inkscape:cx="2.1355932"
     inkscape:cy="24"
     inkscape:window-x="0"
     inkscape:window-y="25"
     inkscape:window-maximized="0"
     inkscape:current-layer="svg4" />
  <path
     d="M 6.3500003,0.06 A 6.29,6.29 0 0 0 3.33,0.83 6.29,6.29 0 0 0 2.8,1.16 6.29,6.29 0 0 0 2.3,1.54 6.29,6.29 0 0 0 1.84,1.97 6.29,6.29 0 0 0 1.42,2.44 6.29,6.29 0 0 0 1.06,2.95 a 6.29,6.29 0 0 0 -0.99999997,3.4 6.29,6.29 0 0 0 6.29000027,6.29 6.29,6.29 0 0 0 3.02,-0.77 6.29,6.29 0 0 0 0.53,-0.33 A 6.29,6.29 0 0 0 10.4,11.16 a 6.29,6.29 0 0 0 0.46,-0.43 6.29,6.29 0 0 0 0.42,-0.47 6.29,6.29 0 0 0 0.36,-0.51 6.29,6.29 0 0 0 1,-3.4 6.29,6.29 0 0 0 -6.2899997,-6.29 z m -0.02,0.94 A 5.4,5.4 0 0 1 11.73,6.4 5.4,5.4 0 0 1 6.3300003,11.81 5.4,5.4 0 0 1 0.93000003,6.41 5.4,5.4 0 0 1 3.88,1.59 V 9.3 c 0,0.13 0.1,0.23 0.22,0.23 h 0.8000003 c 0.12,0 0.23,-0.1 0.23,-0.23 V 1.14 a 5.4,5.4 0 0 1 1.2,-0.14 z m -0.39,2.9 a 0.33,0.38 0 0 0 -0.3,0.39 v 4.89 a 0.33,0.38 0 0 0 0.5,0.33 l 1.83,-1.21 1.83,-1.23 a 0.33,0.38 0 0 0 0,-0.67 l -1.83,-1.22 -1.83,-1.23 a 0.33,0.38 0 0 0 -0.16,-0.05 0.33,0.38 0 0 0 -0.04,0 z"
     id="path2"
     inkscape:connector-curvature="0"
     style="fill:#1a1a1a" />
</svg>
