<?xml version="1.0" encoding="UTF-8" standalone="no"?>
<svg
   xmlns:dc="http://purl.org/dc/elements/1.1/"
   xmlns:cc="http://creativecommons.org/ns#"
   xmlns:rdf="http://www.w3.org/1999/02/22-rdf-syntax-ns#"
   xmlns:svg="http://www.w3.org/2000/svg"
   xmlns="http://www.w3.org/2000/svg"
   xmlns:sodipodi="http://sodipodi.sourceforge.net/DTD/sodipodi-0.dtd"
   xmlns:inkscape="http://www.inkscape.org/namespaces/inkscape"
   width="48"
   height="48"
   viewBox="0 0 12.7 12.7"
   version="1.1"
   id="svg28"
   sodipodi:docname="brackets-electron.svg"
   inkscape:version="0.92.4 (5da689c313, 2019-01-14)">
  <metadata
     id="metadata32">
    <rdf:RDF>
      <cc:Work
         rdf:about="">
        <dc:format>image/svg+xml</dc:format>
        <dc:type
           rdf:resource="http://purl.org/dc/dcmitype/StillImage" />
        <dc:title></dc:title>
      </cc:Work>
    </rdf:RDF>
  </metadata>
  <sodipodi:namedview
     pagecolor="#ffffff"
     bordercolor="#666666"
     borderopacity="1"
     objecttolerance="10"
     gridtolerance="10"
     guidetolerance="10"
     inkscape:pageopacity="0"
     inkscape:pageshadow="2"
     inkscape:window-width="1085"
     inkscape:window-height="480"
     id="namedview30"
     showgrid="false"
     inkscape:zoom="4.9166667"
     inkscape:cx="2.1355932"
     inkscape:cy="24"
     inkscape:window-x="0"
     inkscape:window-y="25"
     inkscape:window-maximized="0"
     inkscape:current-layer="svg28" />
  <defs
     id="defs22">
    <linearGradient
       id="a">
      <stop
         offset="0"
         stop-color="#fff"
         id="stop2" />
      <stop
         offset="1"
         stop-color="#7cafec"
         id="stop4" />
    </linearGradient>
    <linearGradient
       id="b">
      <stop
         stop-color="#2579b0"
         id="stop7" />
      <stop
         offset="1"
         stop-color="#7cbfec"
         id="stop9" />
    </linearGradient>
    <linearGradient
       id="c">
      <stop
         offset="0"
         stop-color="#2e3436"
         id="stop12" />
      <stop
         offset="1"
         stop-color="#555753"
         id="stop14" />
    </linearGradient>
    <linearGradient
       id="d">
      <stop
         offset="0"
         stop-color="#1064d3"
         id="stop17" />
      <stop
         offset="1"
         stop-color="#14c6fd"
         id="stop19" />
    </linearGradient>
  </defs>
  <path
     d="M 6.3400003,0.07 A 6.29,6.29 0 0 0 0.05000003,6.37 6.29,6.29 0 0 0 6.3500003,12.65 6.29,6.29 0 0 0 12.63,6.36 6.29,6.29 0 0 0 6.3400003,0.07 Z m -0.01,0.94 A 5.4,5.4 0 0 1 11.73,6.41 5.4,5.4 0 0 1 6.3300003,11.82 5.4,5.4 0 0 1 0.92000003,6.42 5.4,5.4 0 0 1 6.3200003,1 Z M 4.3,4.3 V 8.4 H 6.1500003 V 7.47 h -0.92 V 5.24 h 0.92 V 4.3 H 4.32 Z m 2.2300003,0 v 0.93 h 0.92 v 2.22 h -0.92 v 0.93 h 1.85 V 4.3 h -1.83 z"
     id="path24"
     inkscape:connector-curvature="0"
     style="fill:#1a1a1a" />
  <path
     d="M6.35 1.65a4.7 4.7 0 0 0-4.7 4.7 4.7 4.7 0 0 0 4.7 4.7 4.7 4.7 0 0 0 4.7-4.7 4.7 4.7 0 0 0-4.7-4.7zm-.01.88a3.86 3.86 0 0 1 3.86 3.86 3.86 3.86 0 0 1-3.86 3.86 3.86 3.86 0 0 1-3.86-3.86 3.86 3.86 0 0 1 3.86-3.86z"
     fill="red"
     opacity=".75"
     id="path26" />
</svg>
