<?xml version="1.0" encoding="UTF-8" standalone="no"?>
<svg
   xmlns:dc="http://purl.org/dc/elements/1.1/"
   xmlns:cc="http://creativecommons.org/ns#"
   xmlns:rdf="http://www.w3.org/1999/02/22-rdf-syntax-ns#"
   xmlns:svg="http://www.w3.org/2000/svg"
   xmlns="http://www.w3.org/2000/svg"
   xmlns:sodipodi="http://sodipodi.sourceforge.net/DTD/sodipodi-0.dtd"
   xmlns:inkscape="http://www.inkscape.org/namespaces/inkscape"
   width="48"
   height="48"
   viewBox="0 0 12.7 12.7"
   version="1.1"
   id="svg4"
   sodipodi:docname="braindump.svg"
   inkscape:version="0.92.4 (5da689c313, 2019-01-14)">
  <metadata
     id="metadata10">
    <rdf:RDF>
      <cc:Work
         rdf:about="">
        <dc:format>image/svg+xml</dc:format>
        <dc:type
           rdf:resource="http://purl.org/dc/dcmitype/StillImage" />
        <dc:title></dc:title>
      </cc:Work>
    </rdf:RDF>
  </metadata>
  <defs
     id="defs8" />
  <sodipodi:namedview
     pagecolor="#ffffff"
     bordercolor="#666666"
     borderopacity="1"
     objecttolerance="10"
     gridtolerance="10"
     guidetolerance="10"
     inkscape:pageopacity="0"
     inkscape:pageshadow="2"
     inkscape:window-width="1085"
     inkscape:window-height="480"
     id="namedview6"
     showgrid="false"
     inkscape:zoom="4.9166667"
     inkscape:cx="2.1355932"
     inkscape:cy="24"
     inkscape:window-x="0"
     inkscape:window-y="25"
     inkscape:window-maximized="0"
     inkscape:current-layer="svg4" />
  <path
     d="M 6.3400003,0.07 A 6.29,6.29 0 0 0 0.05000003,6.37 6.29,6.29 0 0 0 6.3500003,12.65 6.29,6.29 0 0 0 12.63,6.36 6.29,6.29 0 0 0 6.3400003,0.07 Z m -0.01,0.94 A 5.4,5.4 0 0 1 11.73,6.41 5.4,5.4 0 0 1 6.3300003,11.82 5.4,5.4 0 0 1 0.92000003,6.42 5.4,5.4 0 0 1 6.3200003,1 Z m 0.02,0.98 A 3,3 0 0 0 3.35,4.99 c 0,1.19 0.6,1.89 1.2,2.44 0.6000003,0.55 0.3000003,1.45 0.6000003,1.75 l 0.3,0.3 v 0.24 l -0.15,0.04 a 0.15041609,0.15041609 0 0 0 0.08,0.29 l 0.07,-0.02 v 0.29 l -0.15,0.04 a 0.15,0.15 0 1 0 0.07,0.29 l 0.27,-0.07 0.11,0.1 v 0.3 h 1.2 v -0.3 l 0.3,-0.3 v -0.23 l 0.15,-0.04 a 0.15524175,0.15524175 0 1 0 -0.08,-0.3 l -0.07,0.03 v -0.3 l 0.15,-0.03 c 0.08,-0.03 0.13,-0.1 0.1,-0.19 a 0.15,0.15 0 0 0 -0.03,-0.06 l 0.08,-0.08 c 0.3,-0.3 0,-1.2 0.6,-1.75 0.6,-0.56 1.2,-1.26 1.2,-2.45 a 3,3 0 0 0 -3,-3 z m 0.01,0.4 c 1.44,0 2.6,1.2 2.6,2.66 0,1.06 -0.52,1.68 -1.04,2.17 -0.52,0.5 -0.26,1.29 -0.52,1.56 h -2.07 c -0.26,-0.27 0,-1.07 -0.52,-1.56 A 2.82,2.82 0 0 1 3.77,5.05 2.63,2.63 0 0 1 6.3700003,2.39 Z m 0.29,0.8 -1.5,2.4 h 0.9 v 1.8 l 1.5,-2.4 h -0.9 z"
     id="path2"
     inkscape:connector-curvature="0"
     style="fill:#1a1a1a" />
</svg>
